<svg id="svg" version="1.1" xmlns="http://www.w3.org/2000/svg" xmlns:xlink="http://www.w3.org/1999/xlink" width="400" height="400" viewBox="0, 0, 400,400"><g id="svgg"><path id="path0" d="M186.800 31.553 C 185.866 32.600,185.536 32.690,181.822 32.910 C 178.467 33.108,177.747 33.272,177.222 33.955 C 176.787 34.521,175.794 34.891,173.922 35.186 C 170.903 35.662,170.000 35.942,170.000 36.404 C 170.000 36.940,167.583 37.600,165.616 37.600 C 164.007 37.600,163.628 37.765,162.863 38.800 C 162.211 39.683,161.649 40.000,160.741 40.000 C 159.939 40.000,159.026 40.421,158.139 41.200 C 157.387 41.860,156.479 42.400,156.121 42.400 C 155.763 42.400,154.729 42.834,153.823 43.365 C 152.917 43.896,151.506 44.456,150.688 44.610 C 149.863 44.765,149.200 45.124,149.200 45.417 C 149.200 45.708,148.615 46.353,147.900 46.851 C 147.185 47.349,146.215 48.160,145.743 48.652 C 145.272 49.145,144.232 49.670,143.433 49.820 C 142.628 49.971,141.798 50.430,141.575 50.847 C 141.353 51.261,140.971 51.600,140.726 51.600 C 140.480 51.600,139.272 52.655,138.040 53.944 C 136.808 55.233,135.458 56.408,135.039 56.555 C 133.538 57.081,130.409 59.340,130.180 60.063 C 130.051 60.468,129.790 60.800,129.600 60.800 C 129.300 60.800,125.448 64.637,121.852 68.519 C 121.220 69.201,120.519 70.308,120.294 70.979 C 120.069 71.651,119.351 72.740,118.699 73.400 C 115.518 76.618,113.223 79.483,113.212 80.249 C 113.205 80.716,112.232 82.279,111.050 83.722 C 109.763 85.291,108.793 86.912,108.635 87.756 C 108.462 88.675,107.957 89.461,107.185 90.011 C 106.284 90.652,106.000 91.169,106.000 92.165 C 106.000 92.944,105.692 93.755,105.241 94.163 C 104.824 94.540,104.292 95.603,104.059 96.525 C 103.827 97.446,103.178 98.820,102.618 99.578 C 101.862 100.601,101.600 101.447,101.600 102.864 C 101.600 104.432,101.376 105.027,100.347 106.199 C 99.351 107.334,99.035 108.136,98.805 110.113 C 98.646 111.481,98.208 113.183,97.832 113.895 C 97.455 114.607,97.000 116.649,96.820 118.434 C 96.580 120.815,96.252 122.004,95.587 122.903 C 94.773 124.005,94.657 124.735,94.437 130.187 C 94.252 134.773,94.036 136.486,93.547 137.232 C 91.779 139.930,91.805 156.826,93.585 162.000 C 94.171 163.702,94.387 165.766,94.541 171.112 C 94.715 177.176,94.860 178.355,95.729 180.712 C 96.273 182.191,96.909 184.661,97.141 186.202 C 97.374 187.744,97.825 189.544,98.145 190.202 C 98.464 190.861,98.853 192.570,99.010 194.000 C 99.279 196.456,100.327 199.260,101.171 199.782 C 101.382 199.912,101.677 200.869,101.827 201.909 C 102.099 203.793,102.770 205.342,104.100 207.154 C 104.485 207.679,104.800 208.460,104.800 208.891 C 104.800 209.321,105.160 210.131,105.600 210.691 C 106.040 211.250,106.400 211.954,106.400 212.254 C 106.400 212.554,106.680 212.800,107.022 212.800 C 107.364 212.800,108.579 213.314,109.722 213.943 C 110.865 214.571,112.281 215.201,112.869 215.343 C 113.457 215.484,114.447 216.023,115.069 216.541 C 116.270 217.540,122.607 220.493,124.568 220.967 C 125.210 221.122,127.235 222.135,129.068 223.217 C 131.782 224.820,132.400 225.054,132.400 224.477 C 132.400 223.633,130.989 220.764,130.392 220.395 C 130.161 220.252,129.864 219.430,129.732 218.568 C 129.600 217.705,129.255 216.725,128.965 216.390 C 128.675 216.054,128.310 214.974,128.153 213.990 C 127.960 212.784,127.497 211.854,126.734 211.140 C 125.901 210.361,125.600 209.702,125.600 208.660 C 125.600 207.697,125.275 206.891,124.590 206.152 C 123.523 205.000,123.387 204.588,123.023 201.400 C 122.888 200.214,122.523 199.199,122.128 198.905 C 121.633 198.538,121.395 197.497,121.206 194.877 C 120.987 191.842,120.793 191.137,119.829 189.874 C 118.856 188.598,118.669 187.904,118.424 184.653 C 118.204 181.750,117.952 180.665,117.305 179.843 C 116.662 179.026,116.416 177.979,116.233 175.291 C 115.814 169.119,115.111 163.919,114.550 162.845 C 113.563 160.953,113.770 135.619,114.789 133.621 C 115.340 132.542,115.652 130.882,115.822 128.137 C 116.077 123.992,116.478 122.414,117.673 120.846 C 118.081 120.311,118.400 119.225,118.400 118.372 C 118.400 116.551,118.982 114.890,120.002 113.800 C 120.428 113.345,120.925 111.917,121.155 110.489 C 121.377 109.108,121.908 107.535,122.334 106.993 C 122.761 106.450,123.227 105.381,123.371 104.615 C 123.514 103.849,123.973 102.984,124.390 102.692 C 124.807 102.400,125.362 101.311,125.623 100.273 C 125.940 99.014,126.463 98.125,127.192 97.606 C 127.793 97.178,128.932 95.516,129.723 93.914 C 130.621 92.093,132.153 89.949,133.807 88.200 C 135.263 86.660,136.791 84.647,137.202 83.726 C 137.613 82.805,138.411 81.749,138.975 81.380 C 139.539 81.010,140.000 80.450,140.000 80.135 C 140.000 79.820,140.539 79.256,141.197 78.881 C 141.856 78.507,142.396 78.071,142.397 77.914 C 142.404 77.181,145.141 74.625,146.586 74.001 C 147.474 73.619,148.650 72.864,149.200 72.325 C 151.739 69.836,155.684 66.800,156.382 66.800 C 156.806 66.800,157.258 66.629,157.388 66.420 C 157.856 65.663,162.630 62.234,163.800 61.814 C 164.460 61.578,165.450 61.093,166.000 60.737 C 166.550 60.381,167.652 59.976,168.450 59.836 C 169.247 59.697,170.440 59.067,171.100 58.436 C 171.975 57.599,172.882 57.210,174.450 56.996 C 175.632 56.835,177.076 56.366,177.658 55.954 C 178.241 55.542,179.771 54.951,181.058 54.640 C 187.567 53.071,190.872 52.400,192.074 52.403 C 192.803 52.405,194.615 52.135,196.100 51.803 C 197.585 51.472,200.015 50.928,201.500 50.597 C 204.583 49.908,212.983 49.785,214.615 50.406 C 216.122 50.979,220.537 51.968,223.600 52.418 C 226.369 52.826,226.921 53.027,231.600 55.331 C 233.250 56.144,234.811 56.807,235.069 56.805 C 235.328 56.802,236.358 57.425,237.360 58.190 C 238.361 58.954,239.597 59.684,240.106 59.812 C 241.093 60.060,250.348 68.452,252.224 70.800 C 252.840 71.570,253.918 72.830,254.621 73.600 C 255.324 74.370,256.010 75.472,256.145 76.049 C 256.279 76.626,257.214 78.218,258.222 79.587 C 259.573 81.422,260.145 82.636,260.401 84.207 C 260.592 85.380,261.229 87.065,261.817 87.953 C 262.612 89.155,262.976 90.376,263.238 92.723 C 263.432 94.459,263.965 96.724,264.422 97.757 C 265.658 100.551,265.460 112.233,264.152 113.669 C 263.585 114.291,263.216 115.392,263.039 116.984 C 262.820 118.951,262.549 119.589,261.487 120.635 C 260.779 121.331,259.660 122.586,259.000 123.422 C 257.771 124.978,255.622 127.176,253.937 128.600 C 253.416 129.040,252.230 130.094,251.301 130.941 C 250.269 131.883,248.958 132.629,247.930 132.860 C 247.005 133.068,246.003 133.589,245.702 134.019 C 245.190 134.749,244.637 134.800,237.236 134.800 L 229.317 134.800 225.471 131.059 C 221.025 126.734,220.853 126.393,220.710 121.613 C 220.590 117.606,221.015 116.847,223.400 116.804 C 225.305 116.770,227.625 115.500,230.207 113.078 L 232.600 110.834 232.735 106.425 C 232.870 102.025,232.868 102.014,231.846 101.548 C 231.211 101.259,230.576 100.439,230.176 99.394 C 229.640 97.990,229.272 97.628,227.987 97.243 C 227.138 96.989,226.092 96.335,225.664 95.790 C 224.454 94.253,221.299 94.363,219.662 96.000 C 218.599 97.062,218.191 97.200,216.100 97.200 C 214.124 97.200,213.592 97.357,212.836 98.162 C 212.339 98.691,211.346 99.234,210.630 99.368 C 209.914 99.502,208.908 100.059,208.394 100.606 C 207.881 101.153,207.227 101.600,206.941 101.600 C 206.655 101.600,206.161 102.101,205.844 102.714 C 205.528 103.327,204.803 104.077,204.234 104.382 C 203.665 104.686,203.200 105.092,203.200 105.284 C 203.200 105.476,202.836 106.124,202.392 106.725 C 201.947 107.327,201.470 108.778,201.331 109.951 C 201.160 111.401,200.746 112.478,200.039 113.320 C 198.414 115.256,198.449 126.268,200.087 128.416 C 200.788 129.336,201.293 130.683,201.563 132.360 C 201.788 133.761,202.249 135.212,202.586 135.585 C 202.924 135.958,203.200 136.453,203.200 136.686 C 203.200 139.228,216.317 152.400,218.848 152.400 C 219.100 152.400,219.867 152.741,220.553 153.158 C 221.239 153.574,222.610 154.044,223.600 154.200 C 224.590 154.357,226.210 154.818,227.200 155.225 C 232.236 157.294,240.910 157.285,244.986 155.207 C 245.857 154.763,247.152 154.400,247.865 154.400 C 249.732 154.400,253.268 153.588,254.189 152.948 C 254.623 152.647,255.273 152.400,255.633 152.400 C 255.994 152.400,256.988 151.925,257.844 151.344 C 258.699 150.764,259.933 150.103,260.586 149.875 C 261.239 149.647,262.828 148.637,264.118 147.631 C 265.407 146.624,266.808 145.622,267.231 145.405 C 267.654 145.188,268.000 144.876,268.000 144.712 C 268.000 144.548,269.485 142.971,271.300 141.208 C 276.735 135.928,280.000 131.831,280.000 130.292 C 280.000 129.927,280.513 129.103,281.139 128.462 C 282.008 127.574,282.341 126.764,282.542 125.056 C 282.687 123.823,283.173 122.108,283.623 121.245 C 284.114 120.304,284.582 118.314,284.793 116.272 C 284.986 114.401,285.465 112.269,285.857 111.535 C 287.075 109.256,287.154 101.267,285.977 99.363 C 285.229 98.152,285.023 97.080,284.801 93.221 C 284.583 89.429,284.376 88.325,283.706 87.373 C 283.149 86.582,282.804 85.289,282.646 83.402 C 282.517 81.863,282.255 80.552,282.063 80.488 C 280.705 80.035,280.282 79.197,280.032 76.463 C 279.821 74.168,279.598 73.474,278.916 72.996 C 278.447 72.668,277.947 71.868,277.804 71.218 C 277.661 70.569,277.222 69.624,276.827 69.119 C 276.433 68.613,275.983 67.793,275.827 67.296 C 275.671 66.798,275.018 66.119,274.375 65.787 C 273.477 65.323,273.148 64.813,272.952 63.588 C 272.736 62.241,272.028 61.312,268.399 57.617 C 266.035 55.210,263.994 52.961,263.862 52.617 C 263.730 52.274,263.187 51.795,262.655 51.552 C 262.123 51.310,261.458 50.682,261.176 50.156 C 260.895 49.630,260.520 49.200,260.343 49.200 C 260.166 49.200,259.226 48.371,258.253 47.357 C 254.586 43.535,253.197 42.400,252.187 42.400 C 251.252 42.400,247.034 39.186,246.648 38.180 C 246.525 37.861,245.923 37.600,245.309 37.600 C 244.696 37.600,243.339 37.145,242.295 36.589 C 241.251 36.033,239.462 35.401,238.319 35.185 C 237.176 34.968,235.871 34.442,235.417 34.016 C 234.857 33.490,233.723 33.153,231.880 32.964 C 229.755 32.746,228.855 32.438,227.728 31.543 L 226.290 30.400 207.045 30.416 L 187.800 30.431 186.800 31.553 " stroke="none" fill="#e6e1e1" fill-rule="evenodd"></path><path id="path1" d="M0.000 200.000 L 0.000 400.000 200.000 400.000 L 400.000 400.000 400.000 200.000 L 400.000 0.000 200.000 0.000 L 0.000 0.000 0.000 200.000 M223.123 29.444 C 227.362 29.650,228.151 29.795,228.799 30.491 C 229.332 31.063,230.302 31.376,232.133 31.566 C 233.986 31.757,235.157 32.139,236.279 32.916 C 237.420 33.707,238.335 34.000,239.665 34.000 C 241.145 34.000,241.818 34.263,243.244 35.396 C 244.210 36.164,245.421 36.794,245.936 36.796 C 246.797 36.800,247.600 37.375,250.313 39.934 C 250.858 40.447,251.925 40.968,252.684 41.091 C 253.832 41.277,255.585 42.838,263.095 50.358 C 274.171 61.447,273.890 61.139,274.239 62.577 C 274.397 63.225,275.484 64.935,276.655 66.377 C 277.826 67.820,278.788 69.399,278.792 69.886 C 278.796 70.373,279.327 71.372,279.971 72.106 C 280.887 73.149,281.204 73.988,281.427 75.956 C 281.618 77.648,281.963 78.707,282.479 79.188 C 283.098 79.765,283.896 82.933,283.992 85.200 C 283.997 85.310,284.424 85.891,284.940 86.492 C 285.771 87.458,285.911 88.142,286.153 92.426 C 286.378 96.410,286.572 97.466,287.250 98.382 C 288.428 99.975,288.263 111.407,287.042 112.754 C 286.462 113.394,286.228 114.458,286.042 117.295 C 285.835 120.460,285.646 121.204,284.747 122.400 C 284.042 123.337,283.604 124.548,283.423 126.059 C 283.258 127.443,282.876 128.570,282.438 128.965 C 282.046 129.321,281.494 130.309,281.213 131.162 C 280.931 132.015,280.273 133.210,279.750 133.818 C 279.228 134.427,278.800 135.067,278.800 135.241 C 278.800 135.719,267.634 146.867,265.800 148.220 C 264.920 148.869,263.962 149.625,263.672 149.899 C 263.382 150.174,262.662 150.516,262.072 150.659 C 261.482 150.802,260.344 151.432,259.542 152.059 C 258.741 152.687,257.640 153.200,257.096 153.200 C 256.553 153.200,255.654 153.557,255.099 153.993 C 253.893 154.942,250.063 155.999,247.816 156.003 C 246.877 156.004,245.697 156.338,245.000 156.800 C 243.229 157.973,228.984 158.014,227.047 156.852 C 226.361 156.440,224.900 155.988,223.800 155.847 C 222.645 155.699,220.986 155.086,219.873 154.396 C 218.814 153.738,217.716 153.200,217.433 153.200 C 215.392 153.200,204.315 142.466,202.852 139.071 C 202.189 137.532,202.004 137.200,201.082 135.898 C 200.687 135.341,200.270 134.191,200.156 133.342 C 199.794 130.651,199.615 130.072,198.937 129.394 C 197.331 127.788,197.308 114.587,198.908 112.553 C 199.437 111.881,199.809 110.700,199.922 109.334 C 200.061 107.658,200.358 106.902,201.251 105.946 C 201.883 105.269,202.401 104.599,202.403 104.458 C 202.412 103.663,208.184 98.686,209.512 98.327 C 210.330 98.106,211.476 97.477,212.057 96.929 C 212.879 96.155,213.683 95.883,215.657 95.715 C 217.474 95.561,218.467 95.256,219.134 94.649 C 220.582 93.334,224.845 93.489,226.956 94.935 C 227.812 95.521,228.833 96.000,229.227 96.000 C 230.071 96.000,231.600 97.807,231.600 98.805 C 231.600 99.188,231.898 99.749,232.262 100.051 C 233.874 101.388,234.543 106.575,233.618 110.563 C 232.982 113.308,228.035 117.600,225.508 117.600 C 222.236 117.600,222.000 117.887,222.000 121.861 C 222.000 125.084,222.072 125.376,223.167 126.623 C 223.808 127.354,224.483 128.199,224.667 128.500 C 226.170 130.974,230.365 133.528,233.388 133.812 C 238.239 134.266,243.550 133.721,245.004 132.619 C 245.666 132.116,246.836 131.570,247.604 131.405 C 249.565 130.982,254.394 126.778,258.200 122.182 C 258.860 121.385,259.895 120.202,260.500 119.553 C 261.165 118.839,261.600 117.923,261.600 117.236 C 261.600 115.780,262.598 112.945,263.388 112.155 C 264.381 111.162,264.276 99.762,263.264 98.626 C 262.759 98.059,262.378 96.606,262.052 94.000 C 261.711 91.274,261.329 89.861,260.703 89.001 C 260.176 88.278,259.720 86.874,259.554 85.464 C 259.363 83.846,258.986 82.798,258.331 82.063 C 256.851 80.402,255.797 78.763,254.889 76.709 C 253.584 73.758,240.077 60.400,238.398 60.400 C 238.027 60.400,237.201 59.946,236.562 59.392 C 235.923 58.838,234.680 58.177,233.800 57.924 C 232.920 57.671,231.840 57.159,231.400 56.786 C 230.960 56.413,230.019 55.999,229.309 55.866 C 228.600 55.733,227.340 55.181,226.509 54.640 C 225.323 53.867,224.138 53.573,220.972 53.264 C 218.757 53.048,216.260 52.585,215.423 52.236 C 213.308 51.352,203.930 51.336,201.833 52.212 C 201.013 52.555,197.959 53.006,194.896 53.237 C 191.886 53.463,189.210 53.826,188.950 54.042 C 188.202 54.662,183.151 56.000,181.555 56.000 C 180.759 56.000,179.679 56.331,179.154 56.736 C 177.960 57.657,175.824 58.400,174.371 58.400 C 173.761 58.400,172.745 58.835,172.113 59.366 C 171.481 59.898,170.304 60.457,169.496 60.608 C 168.689 60.760,167.810 61.147,167.543 61.468 C 166.913 62.228,165.022 63.200,164.175 63.200 C 163.615 63.200,160.792 65.275,158.871 67.098 C 158.581 67.374,157.975 67.600,157.525 67.600 C 156.797 67.600,153.024 70.590,149.853 73.682 C 149.221 74.297,148.396 74.800,148.017 74.800 C 146.975 74.800,139.166 82.692,138.753 84.163 C 138.557 84.861,136.924 86.956,135.003 88.973 C 132.995 91.081,131.598 92.884,131.596 93.373 C 131.593 94.112,130.008 96.514,128.189 98.537 C 127.825 98.942,127.255 100.069,126.924 101.042 C 126.593 102.014,125.995 103.039,125.595 103.318 C 125.196 103.598,124.739 104.517,124.581 105.360 C 124.423 106.204,123.777 107.481,123.147 108.200 C 122.213 109.264,122.000 109.875,122.000 111.499 C 122.000 112.927,121.758 113.799,121.148 114.575 C 120.668 115.185,120.057 116.912,119.749 118.529 C 119.448 120.108,118.871 121.850,118.466 122.400 C 117.903 123.164,117.665 124.469,117.456 127.924 C 117.225 131.757,117.016 132.764,116.091 134.524 L 115.000 136.600 115.022 148.247 L 115.043 159.894 116.099 162.247 C 117.055 164.378,117.181 165.241,117.428 171.400 C 117.662 177.231,117.807 178.317,118.446 179.021 C 119.276 179.935,120.000 183.154,120.000 185.929 C 120.000 187.239,120.240 188.004,120.858 188.662 C 121.679 189.536,121.771 190.008,122.375 196.469 C 122.389 196.617,122.851 197.274,123.402 197.929 C 124.146 198.813,124.468 199.775,124.653 201.660 C 124.833 203.487,125.155 204.481,125.803 205.200 C 126.298 205.750,126.819 206.853,126.961 207.651 C 127.102 208.449,127.664 209.584,128.209 210.172 C 128.816 210.827,129.200 211.717,129.200 212.468 C 129.200 213.260,129.625 214.178,130.400 215.061 C 131.060 215.813,131.600 216.858,131.600 217.383 C 131.600 217.909,132.035 218.855,132.566 219.487 C 133.098 220.119,133.660 221.313,133.815 222.141 C 133.987 223.054,134.460 223.883,135.018 224.249 C 135.609 224.636,136.035 225.424,136.209 226.453 C 136.360 227.347,136.947 228.548,137.540 229.173 C 139.521 231.266,140.161 232.196,140.704 233.771 C 141.002 234.636,142.139 236.375,143.231 237.636 C 144.323 238.896,145.426 240.529,145.682 241.263 C 145.938 241.998,147.108 243.589,148.283 244.800 C 152.936 249.595,154.505 251.470,155.216 253.083 C 155.624 254.009,156.327 254.997,156.779 255.279 C 157.230 255.562,157.600 255.903,157.600 256.038 C 157.600 256.359,163.641 262.400,163.962 262.400 C 164.097 262.400,164.441 262.773,164.726 263.230 C 165.011 263.686,165.909 264.332,166.722 264.665 C 167.535 264.999,168.560 265.600,169.000 266.002 C 169.440 266.403,170.520 267.379,171.400 268.170 C 172.280 268.961,173.984 270.552,175.186 271.704 C 178.725 275.098,180.931 276.800,181.793 276.802 C 182.237 276.804,183.578 277.706,184.772 278.806 C 185.976 279.915,187.593 280.983,188.398 281.200 C 189.198 281.415,190.274 282.040,190.790 282.589 C 191.306 283.138,192.341 283.703,193.090 283.843 C 193.906 283.996,195.460 284.960,196.971 286.249 C 198.639 287.674,199.848 288.400,200.549 288.400 C 201.179 288.400,202.115 288.885,202.863 289.600 C 203.657 290.359,204.538 290.800,205.259 290.800 C 205.887 290.800,206.746 291.146,207.170 291.570 C 208.296 292.696,209.395 293.200,210.725 293.200 C 212.129 293.200,214.800 294.249,214.800 294.801 C 214.800 295.015,215.525 295.307,216.412 295.448 C 217.298 295.590,218.673 296.222,219.467 296.853 C 220.644 297.789,221.299 298.000,223.024 298.000 C 224.672 298.000,225.390 298.212,226.280 298.960 C 227.077 299.631,228.140 299.998,229.810 300.180 C 234.363 300.676,235.244 300.881,235.920 301.596 C 236.430 302.134,237.632 302.412,240.715 302.702 C 244.129 303.023,244.996 303.245,245.803 304.003 C 246.738 304.881,247.136 304.927,256.223 305.209 C 264.753 305.474,265.775 305.579,266.746 306.297 C 267.687 306.993,268.638 307.114,274.410 307.274 C 278.533 307.389,281.342 307.642,281.915 307.951 C 283.395 308.749,285.544 311.304,285.826 312.600 C 285.969 313.260,286.427 314.361,286.843 315.047 C 287.865 316.731,287.876 320.334,286.864 321.646 C 286.459 322.171,285.930 323.182,285.687 323.893 C 284.866 326.301,282.234 328.404,279.454 328.873 C 273.476 329.880,250.265 328.754,245.710 327.236 C 244.439 326.812,241.711 326.346,239.647 326.199 C 237.192 326.024,235.393 325.671,234.447 325.178 C 233.651 324.764,231.740 324.243,230.200 324.021 C 226.965 323.554,224.935 323.010,224.221 322.417 C 223.945 322.188,222.837 321.889,221.760 321.752 C 220.682 321.614,218.810 321.012,217.600 320.414 C 216.390 319.815,214.590 319.198,213.600 319.042 C 212.610 318.887,211.440 318.526,211.000 318.241 C 210.560 317.956,209.265 317.414,208.123 317.037 C 206.980 316.659,205.630 316.028,205.123 315.633 C 204.615 315.239,203.480 314.783,202.600 314.621 C 200.974 314.322,195.892 312.110,192.900 310.400 C 192.515 310.180,191.390 309.639,190.400 309.197 C 188.059 308.153,185.041 306.468,182.853 304.984 C 181.102 303.797,177.819 301.884,175.200 300.525 C 173.555 299.671,170.108 297.144,167.442 294.837 C 166.402 293.936,165.296 293.200,164.983 293.200 C 164.461 293.200,157.489 287.452,155.040 285.003 C 154.464 284.427,153.409 283.709,152.696 283.408 C 151.118 282.740,139.335 270.812,138.654 269.193 C 138.386 268.556,136.328 266.078,134.080 263.685 C 129.402 258.706,126.800 255.370,126.800 254.350 C 126.800 253.963,126.463 253.410,126.052 253.121 C 125.091 252.448,122.740 249.331,122.092 247.870 C 121.628 246.827,119.932 244.481,118.333 242.674 C 117.967 242.260,117.548 241.444,117.402 240.860 C 117.257 240.277,116.612 239.004,115.969 238.031 C 115.326 237.059,114.800 236.002,114.800 235.684 C 114.800 235.366,114.260 234.491,113.600 233.739 C 112.883 232.922,112.400 231.925,112.400 231.261 C 112.400 230.548,111.969 229.737,111.200 229.000 C 110.465 228.296,110.000 227.445,110.000 226.803 C 110.000 226.227,109.568 225.170,109.040 224.454 C 108.512 223.739,107.972 222.579,107.840 221.877 C 107.708 221.175,107.164 220.093,106.631 219.473 C 106.098 218.854,105.542 217.640,105.396 216.776 C 105.250 215.911,104.965 215.102,104.762 214.977 C 104.096 214.565,103.186 212.434,102.794 210.368 C 102.582 209.251,102.059 207.892,101.631 207.348 C 101.203 206.804,100.729 205.371,100.578 204.165 C 100.418 202.881,99.902 201.378,99.336 200.544 C 98.593 199.448,98.311 198.369,98.119 195.881 C 97.931 193.443,97.641 192.306,96.945 191.281 C 95.977 189.854,95.785 189.043,95.420 184.830 C 95.298 183.417,94.938 181.974,94.621 181.624 C 93.825 180.743,93.300 176.901,92.980 169.600 C 92.765 164.710,92.569 163.243,92.054 162.659 C 91.011 161.476,90.849 138.384,91.874 136.856 C 92.412 136.053,92.685 134.338,93.014 129.702 C 93.378 124.573,93.579 123.425,94.281 122.475 C 94.908 121.627,95.186 120.457,95.397 117.773 C 95.622 114.917,95.879 113.903,96.681 112.719 C 97.324 111.768,97.785 110.372,97.967 108.823 C 98.162 107.175,98.530 106.114,99.126 105.479 C 99.607 104.967,100.001 104.110,100.002 103.574 C 100.006 101.991,100.822 99.460,101.606 98.600 C 102.007 98.160,102.459 97.127,102.611 96.304 C 102.763 95.481,103.405 94.221,104.037 93.504 C 104.690 92.764,105.190 91.733,105.194 91.121 C 105.197 90.527,105.642 89.565,106.182 88.982 C 106.722 88.399,107.380 87.265,107.644 86.461 C 107.908 85.658,109.087 83.865,110.262 82.477 C 111.438 81.090,112.403 79.560,112.406 79.077 C 112.409 78.574,113.347 77.192,114.606 75.836 C 115.813 74.535,116.800 73.327,116.800 73.150 C 116.800 72.973,117.125 72.654,117.522 72.442 C 117.919 72.229,118.594 71.368,119.022 70.528 C 120.819 66.998,131.626 55.981,133.834 55.427 C 134.393 55.287,135.425 54.636,136.126 53.981 C 140.875 49.543,142.295 48.400,143.061 48.400 C 143.845 48.400,145.426 47.258,147.859 44.936 C 148.358 44.460,149.304 43.953,149.962 43.808 C 150.620 43.664,151.823 43.018,152.634 42.373 C 153.446 41.728,154.511 41.200,155.000 41.200 C 155.489 41.200,156.569 40.660,157.400 40.000 C 158.231 39.340,159.321 38.800,159.824 38.800 C 160.327 38.800,161.252 38.368,161.880 37.840 C 162.641 37.199,163.783 36.785,165.314 36.593 C 166.949 36.389,168.023 35.976,169.059 35.153 C 170.278 34.185,170.878 34.000,172.806 34.000 C 174.395 34.000,175.261 33.808,175.618 33.378 C 176.590 32.207,177.803 31.820,181.200 31.597 C 183.917 31.418,184.855 31.185,185.869 30.434 C 187.656 29.112,206.162 28.620,223.123 29.444 " stroke="none" fill="#ac1c24" fill-rule="evenodd"></path><path id="path2" d="M187.067 30.267 C 186.920 30.413,186.800 30.808,186.800 31.143 C 186.800 31.661,186.876 31.652,187.300 31.089 C 187.669 30.599,188.586 30.390,190.800 30.292 L 193.800 30.159 190.567 30.079 C 188.788 30.036,187.213 30.120,187.067 30.267 M224.259 30.361 C 225.758 30.507,227.019 30.873,227.491 31.301 C 228.474 32.192,229.023 31.710,228.139 30.732 C 227.603 30.140,226.932 30.012,224.638 30.061 L 221.800 30.122 224.259 30.361 M177.467 32.667 C 176.895 33.238,177.257 33.433,178.600 33.276 C 179.370 33.186,180.000 32.952,180.000 32.756 C 180.000 32.344,177.864 32.269,177.467 32.667 M232.627 32.757 C 232.506 32.953,233.035 33.187,233.803 33.276 C 235.241 33.444,235.689 33.073,234.567 32.643 C 233.665 32.297,232.883 32.343,232.627 32.757 M170.400 35.363 C 170.400 35.728,170.680 35.852,171.200 35.716 C 171.640 35.601,172.000 35.348,172.000 35.153 C 172.000 34.959,171.640 34.800,171.200 34.800 C 170.760 34.800,170.400 35.053,170.400 35.363 M240.003 35.100 C 240.005 35.265,240.725 35.790,241.603 36.267 C 243.363 37.222,243.634 37.016,242.384 35.675 C 241.612 34.846,239.996 34.456,240.003 35.100 M164.501 37.089 C 163.313 37.237,162.013 38.546,162.535 39.069 C 162.645 39.179,162.936 38.893,163.182 38.434 C 163.480 37.877,164.021 37.600,164.814 37.600 C 165.466 37.600,166.000 37.420,166.000 37.200 C 166.000 36.980,165.955 36.829,165.900 36.864 C 165.845 36.899,165.215 37.001,164.501 37.089 M243.784 37.174 C 243.929 37.409,244.525 37.600,245.109 37.600 C 245.787 37.600,246.487 37.997,247.049 38.700 C 247.533 39.305,248.026 39.703,248.146 39.584 C 248.671 39.066,246.506 37.261,245.061 37.013 C 244.016 36.834,243.606 36.886,243.784 37.174 M158.584 40.027 C 158.160 40.713,158.539 40.780,159.377 40.167 C 160.026 39.693,160.046 39.600,159.500 39.600 C 159.141 39.600,158.729 39.792,158.584 40.027 M154.334 42.053 C 153.367 42.408,152.423 43.602,153.113 43.599 C 153.518 43.596,156.000 42.055,156.000 41.806 C 156.000 41.529,155.605 41.588,154.334 42.053 M253.433 42.811 C 254.857 44.289,256.000 45.003,256.000 44.414 C 256.000 44.186,255.775 43.999,255.500 43.997 C 255.225 43.996,254.693 43.456,254.319 42.797 C 253.944 42.139,253.329 41.600,252.952 41.600 C 252.411 41.600,252.512 41.855,253.433 42.811 M149.531 44.270 C 148.785 44.467,147.411 46.344,147.758 46.692 C 148.088 47.022,149.200 45.988,149.200 45.351 C 149.200 45.048,149.515 44.797,149.900 44.794 C 150.285 44.791,150.870 44.613,151.200 44.400 C 151.853 43.978,150.911 43.905,149.531 44.270 M140.449 50.816 C 139.485 51.687,138.783 52.400,138.887 52.400 C 139.485 52.400,141.557 51.090,141.748 50.590 C 141.873 50.266,142.330 50.000,142.764 50.000 C 143.198 50.000,143.664 49.820,143.800 49.600 C 144.465 48.525,141.990 49.423,140.449 50.816 M200.200 50.880 C 199.100 51.084,197.168 51.509,195.906 51.825 C 194.644 52.141,192.967 52.400,192.180 52.400 C 190.883 52.400,187.652 53.051,181.058 54.640 C 179.771 54.951,178.213 55.564,177.597 56.002 C 176.981 56.441,176.054 56.813,175.538 56.828 C 175.022 56.844,174.240 57.025,173.800 57.230 C 173.227 57.499,173.652 57.566,175.303 57.469 C 176.925 57.374,177.871 57.092,178.503 56.517 C 179.120 55.955,180.462 55.541,182.800 55.191 C 184.670 54.912,186.759 54.370,187.443 53.989 C 188.260 53.532,190.108 53.194,192.843 53.001 C 197.954 52.640,201.924 51.847,202.750 51.022 C 203.473 50.298,203.374 50.293,200.200 50.880 M214.000 50.696 C 214.000 51.502,217.184 52.430,221.696 52.939 C 224.717 53.280,226.644 53.690,227.096 54.087 C 227.483 54.427,228.250 54.841,228.800 55.007 C 229.350 55.173,230.770 55.824,231.956 56.454 C 233.142 57.084,234.414 57.600,234.781 57.600 C 235.149 57.600,235.949 58.120,236.558 58.757 C 237.168 59.393,238.217 60.023,238.890 60.158 C 239.563 60.293,240.943 61.145,241.957 62.052 C 245.661 65.367,252.806 72.589,253.007 73.222 C 253.120 73.579,253.658 74.110,254.201 74.400 C 254.829 74.737,255.279 75.415,255.439 76.265 C 255.667 77.480,257.945 80.976,258.977 81.694 C 260.091 82.468,259.842 81.788,258.194 79.549 C 257.202 78.201,256.279 76.626,256.145 76.049 C 256.010 75.472,255.324 74.370,254.621 73.600 C 253.918 72.830,252.840 71.570,252.224 70.800 C 250.348 68.452,241.093 60.060,240.106 59.812 C 239.597 59.684,238.361 58.954,237.360 58.190 C 236.358 57.425,235.328 56.802,235.069 56.805 C 234.811 56.807,233.250 56.144,231.600 55.331 C 226.921 53.027,226.369 52.826,223.600 52.419 C 221.272 52.076,218.263 51.433,215.100 50.602 C 214.465 50.435,214.000 50.475,214.000 50.696 M131.938 57.440 C 128.206 60.531,120.000 69.260,120.006 70.131 C 120.011 70.832,120.085 70.884,120.386 70.400 C 121.347 68.857,129.082 60.800,129.603 60.800 C 129.792 60.800,130.051 60.468,130.180 60.063 C 130.309 59.657,131.311 58.745,132.407 58.034 C 133.503 57.324,134.400 56.576,134.400 56.371 C 134.400 55.682,133.684 55.993,131.938 57.440 M171.067 58.426 C 170.698 58.953,169.618 59.520,168.365 59.845 C 167.217 60.143,165.976 60.659,165.608 60.993 C 165.239 61.327,164.626 61.600,164.245 61.600 C 163.864 61.600,163.664 61.780,163.800 62.000 C 164.203 62.653,165.066 62.461,166.269 61.451 C 166.891 60.929,168.172 60.372,169.116 60.213 C 170.291 60.015,171.032 59.617,171.470 58.950 C 172.274 57.723,171.900 57.237,171.067 58.426 M270.943 59.689 C 271.059 60.480,273.205 63.009,273.184 62.331 C 273.175 62.039,272.647 61.192,272.012 60.448 C 271.376 59.705,270.895 59.364,270.943 59.689 M161.135 63.313 C 157.880 66.027,156.792 66.800,156.232 66.800 C 155.655 66.800,151.499 70.067,149.200 72.328 C 148.650 72.868,147.660 73.565,147.000 73.876 L 145.800 74.441 147.357 74.237 C 148.423 74.096,149.316 73.617,150.187 72.716 C 153.498 69.294,155.580 67.636,157.069 67.235 C 157.945 66.999,159.132 66.310,159.706 65.703 C 161.067 64.265,161.949 63.511,162.970 62.914 C 163.783 62.438,163.783 62.428,163.000 62.427 C 162.560 62.426,161.721 62.825,161.135 63.313 M275.779 67.125 C 276.151 68.307,277.708 70.761,278.100 70.783 C 278.811 70.823,278.294 69.549,276.944 67.938 C 275.916 66.711,275.573 66.472,275.779 67.125 M278.946 72.990 C 279.356 73.301,279.833 74.150,280.005 74.878 L 280.318 76.200 280.359 74.780 C 280.403 73.268,279.833 72.392,278.820 72.413 C 278.317 72.423,278.340 72.532,278.946 72.990 M114.683 76.795 C 113.528 78.018,112.811 79.140,112.828 79.695 C 112.850 80.406,112.914 80.458,113.128 79.938 C 113.278 79.574,114.255 78.351,115.300 77.220 C 116.345 76.088,117.200 75.081,117.200 74.981 C 117.200 74.416,116.349 75.029,114.683 76.795 M143.434 76.499 C 142.863 77.215,142.095 78.115,141.728 78.500 C 141.361 78.885,141.234 79.200,141.447 79.200 C 142.109 79.200,145.297 75.707,144.874 75.446 C 144.653 75.309,144.006 75.783,143.434 76.499 M139.716 80.667 C 139.153 81.859,139.599 81.852,140.468 80.654 C 140.926 80.024,140.982 79.733,140.646 79.733 C 140.377 79.733,139.958 80.153,139.716 80.667 M281.900 80.265 C 282.175 80.376,282.403 80.857,282.406 81.333 C 282.409 81.810,282.587 82.470,282.800 82.800 C 283.104 83.270,283.189 83.169,283.194 82.333 C 283.203 80.792,282.809 79.995,282.057 80.032 C 281.642 80.052,281.584 80.138,281.900 80.265 M110.072 83.726 C 108.787 85.052,107.705 87.600,108.428 87.600 C 108.633 87.600,108.800 87.354,108.800 87.052 C 108.800 86.751,109.535 85.581,110.434 84.452 C 112.267 82.150,112.040 81.695,110.072 83.726 M137.036 84.100 C 136.720 84.815,135.277 86.660,133.829 88.200 C 132.244 89.887,130.613 92.163,129.727 93.927 C 128.919 95.537,127.895 97.108,127.453 97.418 C 127.010 97.728,126.747 98.080,126.867 98.200 C 127.151 98.484,128.400 98.005,128.400 97.612 C 128.400 97.446,128.928 96.646,129.573 95.834 C 130.218 95.023,130.858 93.845,130.996 93.218 C 131.134 92.591,132.316 90.981,133.623 89.641 C 134.930 88.301,136.000 87.030,136.000 86.816 C 136.000 86.603,136.341 86.246,136.758 86.023 C 137.353 85.704,138.400 83.739,138.400 82.940 C 138.400 82.291,137.496 83.060,137.036 84.100 M260.040 85.286 C 260.008 86.817,260.214 87.420,261.136 88.486 C 262.128 89.633,262.325 90.301,262.682 93.731 C 262.957 96.375,263.302 97.873,263.736 98.307 C 264.676 99.248,264.957 98.664,264.235 97.268 C 263.892 96.605,263.448 94.601,263.249 92.815 C 262.978 90.396,262.618 89.164,261.836 87.983 C 261.259 87.111,260.628 85.723,260.434 84.899 L 260.080 83.400 260.040 85.286 M283.600 87.087 C 283.600 87.281,283.750 87.611,283.933 87.820 C 284.115 88.029,284.515 89.010,284.821 90.000 L 285.378 91.800 285.514 90.506 C 285.661 89.101,284.900 87.157,284.100 86.896 C 283.825 86.807,283.600 86.892,283.600 87.087 M106.470 89.726 C 105.991 90.235,105.600 91.110,105.600 91.671 C 105.600 92.231,105.060 93.369,104.400 94.200 C 103.740 95.031,103.200 96.111,103.200 96.601 C 103.200 97.091,102.812 97.985,102.339 98.587 C 101.403 99.777,100.692 102.686,101.252 103.032 C 101.443 103.150,101.600 102.732,101.600 102.101 C 101.600 101.471,102.044 100.354,102.587 99.618 C 103.129 98.882,103.479 98.127,103.363 97.940 C 103.247 97.753,103.323 97.600,103.532 97.600 C 103.740 97.600,104.025 96.995,104.163 96.255 C 104.302 95.515,104.772 94.587,105.208 94.193 C 105.675 93.770,105.999 92.968,105.996 92.238 C 105.994 91.328,106.338 90.712,107.296 89.911 C 108.155 89.194,108.385 88.818,107.970 88.811 C 107.623 88.805,106.948 89.217,106.470 89.726 M220.277 94.581 C 219.904 94.953,219.606 95.469,219.613 95.729 C 219.620 95.988,219.865 95.885,220.157 95.500 C 220.998 94.392,224.643 94.525,225.623 95.700 C 226.459 96.703,226.690 96.150,225.891 95.057 C 225.130 94.017,221.176 93.681,220.277 94.581 M212.984 97.227 C 212.579 97.882,212.902 97.917,214.000 97.339 C 214.959 96.833,214.964 96.812,214.124 96.806 C 213.642 96.803,213.129 96.992,212.984 97.227 M228.200 97.200 C 228.336 97.420,228.642 97.600,228.880 97.600 C 229.117 97.600,229.542 97.915,229.823 98.299 C 230.566 99.315,230.897 98.716,230.168 97.676 C 229.579 96.835,227.693 96.379,228.200 97.200 M285.897 98.636 C 285.757 98.777,285.921 99.319,286.263 99.840 C 287.165 101.217,286.872 109.635,285.856 111.537 C 284.993 113.151,285.296 113.673,286.373 112.431 C 288.314 110.193,287.848 96.685,285.897 98.636 M207.737 100.100 C 206.441 101.195,205.122 102.531,202.163 105.742 C 200.980 107.026,200.375 109.200,201.200 109.200 C 201.420 109.200,201.600 108.864,201.600 108.454 C 201.600 108.044,201.960 107.250,202.400 106.691 C 202.840 106.131,203.200 105.508,203.200 105.305 C 203.200 105.101,203.665 104.686,204.234 104.382 C 204.803 104.077,205.528 103.327,205.844 102.714 C 206.161 102.101,206.655 101.600,206.941 101.600 C 207.227 101.600,207.883 101.150,208.400 100.600 C 208.917 100.050,209.578 99.600,209.870 99.600 C 210.161 99.600,210.400 99.420,210.400 99.200 C 210.400 98.428,209.261 98.813,207.737 100.100 M125.463 101.067 C 125.292 101.763,124.892 102.433,124.576 102.554 C 124.259 102.676,124.000 103.042,124.000 103.368 C 124.000 103.800,124.281 103.701,125.029 103.008 C 125.772 102.319,126.019 101.741,125.917 100.927 L 125.775 99.800 125.463 101.067 M122.933 106.004 C 122.011 107.701,122.222 108.101,123.370 106.833 C 123.752 106.411,124.005 105.693,123.932 105.237 C 123.823 104.553,123.650 104.686,122.933 106.004 M99.233 106.367 C 98.710 106.890,98.412 107.684,98.432 108.500 L 98.463 109.800 98.884 108.600 C 99.115 107.940,99.580 107.084,99.916 106.698 C 100.809 105.673,100.215 105.385,99.233 106.367 M121.082 111.254 C 120.908 112.274,120.413 113.426,119.982 113.816 C 119.552 114.205,119.200 114.808,119.200 115.154 C 119.200 115.599,119.561 115.423,120.425 114.560 C 121.511 113.474,121.635 113.112,121.525 111.368 L 121.400 109.400 121.082 111.254 M232.431 110.500 C 231.510 112.870,225.940 116.758,223.400 116.804 C 221.025 116.847,220.510 117.901,220.719 122.300 C 220.859 125.241,221.484 124.144,221.441 121.034 C 221.392 117.461,221.284 117.586,224.724 117.208 L 227.494 116.904 230.347 113.971 C 231.916 112.357,233.200 110.714,233.200 110.319 C 233.200 109.335,232.851 109.417,232.431 110.500 M97.281 113.150 C 96.701 113.509,95.995 115.760,96.012 117.197 C 96.028 118.524,96.602 117.586,97.404 114.922 C 98.025 112.857,98.014 112.697,97.281 113.150 M199.048 113.410 C 197.817 114.640,198.135 127.470,199.433 128.946 C 200.769 130.465,201.207 129.946,199.983 128.295 C 198.806 126.707,198.466 115.174,199.557 113.854 C 200.298 112.958,199.872 112.585,199.048 113.410 M263.230 113.364 C 262.549 114.185,262.226 116.645,262.756 116.973 C 263.047 117.152,263.200 116.799,263.200 115.949 C 263.200 115.167,263.546 114.284,264.070 113.726 C 264.755 112.996,264.808 112.800,264.319 112.800 C 263.977 112.800,263.487 113.054,263.230 113.364 M118.400 118.322 C 118.400 119.315,118.089 120.288,117.554 120.967 C 116.554 122.239,116.891 122.901,117.967 121.778 C 118.835 120.872,119.455 117.405,118.819 117.012 C 118.554 116.848,118.400 117.330,118.400 118.322 M284.865 117.817 C 284.609 118.378,284.399 119.054,284.398 119.319 C 284.396 119.583,284.123 120.322,283.790 120.960 C 283.036 122.406,283.209 122.624,284.303 121.604 C 284.797 121.145,285.262 120.057,285.422 118.990 C 285.743 116.850,285.520 116.380,284.865 117.817 M260.000 121.132 C 260.000 121.625,254.222 127.600,253.745 127.600 C 253.520 127.600,253.096 128.047,252.804 128.593 C 252.511 129.140,251.941 129.692,251.536 129.820 C 250.810 130.051,250.495 130.800,251.124 130.800 C 251.687 130.800,256.250 126.629,258.835 123.752 C 260.183 122.252,260.960 120.800,260.414 120.800 C 260.186 120.800,260.000 120.949,260.000 121.132 M94.480 122.880 C 94.172 123.188,94.019 124.588,94.052 126.780 L 94.105 130.200 94.468 127.014 C 94.688 125.084,95.085 123.548,95.477 123.114 C 96.248 122.263,95.316 122.044,94.480 122.880 M282.667 124.267 C 282.520 124.413,282.400 125.127,282.400 125.853 C 282.400 126.780,282.043 127.538,281.200 128.400 C 280.540 129.075,280.000 129.927,280.000 130.292 C 280.000 131.264,277.279 135.136,274.513 138.100 C 273.779 138.887,274.071 139.004,275.226 138.386 C 275.652 138.158,276.000 137.710,276.000 137.389 C 276.000 137.069,276.372 136.580,276.826 136.303 C 277.974 135.603,280.400 132.160,280.400 131.230 C 280.400 130.807,280.931 129.931,281.579 129.282 C 282.450 128.411,282.830 127.566,283.031 126.051 C 283.295 124.062,283.223 123.710,282.667 124.267 M116.345 125.800 C 116.205 126.020,115.960 127.550,115.800 129.200 C 115.640 130.850,115.335 132.530,115.122 132.934 C 114.909 133.338,114.854 133.788,115.000 133.934 C 115.547 134.481,116.354 132.638,116.608 130.260 C 116.895 127.582,116.752 125.161,116.345 125.800 M224.000 129.333 C 224.000 129.460,224.464 130.028,225.032 130.596 C 225.776 131.339,226.027 131.442,225.932 130.962 C 225.810 130.344,224.000 128.819,224.000 129.333 M201.100 131.833 C 200.414 132.520,201.209 136.000,202.052 136.000 C 202.230 136.000,202.606 136.788,202.888 137.751 C 203.868 141.101,214.133 151.513,217.725 152.800 C 218.646 153.130,219.850 153.694,220.400 154.053 C 221.508 154.777,224.800 155.321,224.800 154.780 C 224.800 154.591,224.125 154.316,223.300 154.169 C 222.475 154.023,221.239 153.565,220.553 153.151 C 219.867 152.738,219.100 152.400,218.848 152.400 C 216.317 152.400,203.200 139.228,203.200 136.686 C 203.200 136.453,202.925 135.959,202.589 135.588 C 202.252 135.216,201.847 134.152,201.689 133.223 C 201.530 132.293,201.265 131.668,201.100 131.833 M246.000 132.800 C 246.000 133.020,246.259 133.200,246.576 133.200 C 246.893 133.200,247.264 133.020,247.400 132.800 C 247.536 132.580,247.277 132.400,246.824 132.400 C 246.371 132.400,246.000 132.580,246.000 132.800 M235.091 134.689 C 235.801 134.777,237.061 134.779,237.891 134.692 C 238.721 134.605,238.140 134.533,236.600 134.531 C 235.060 134.529,234.381 134.600,235.091 134.689 M92.461 137.147 C 91.448 138.025,91.092 159.488,92.060 161.326 C 93.024 163.158,94.168 163.303,93.421 161.500 C 91.840 157.680,91.898 139.749,93.499 137.305 C 94.218 136.208,93.644 136.121,92.461 137.147 M269.255 143.149 C 268.565 143.793,268.000 144.476,268.000 144.666 C 268.000 144.855,267.654 145.188,267.231 145.405 C 266.808 145.622,265.407 146.624,264.118 147.631 C 262.828 148.637,261.239 149.647,260.586 149.875 C 259.933 150.103,258.699 150.764,257.844 151.344 C 256.988 151.925,255.994 152.400,255.633 152.400 C 255.273 152.400,254.616 152.653,254.174 152.963 C 253.732 153.273,252.252 153.746,250.885 154.015 C 249.518 154.284,248.400 154.625,248.400 154.773 C 248.400 155.282,253.627 154.499,254.313 153.888 C 254.691 153.550,255.732 153.080,256.626 152.842 C 257.520 152.604,258.677 151.957,259.196 151.404 C 259.715 150.852,260.426 150.400,260.776 150.400 C 262.089 150.400,264.441 148.730,268.500 144.918 C 268.885 144.556,269.200 144.022,269.200 143.730 C 269.200 143.439,269.459 143.200,269.776 143.200 C 270.379 143.200,271.015 142.481,270.695 142.162 C 270.593 142.060,269.945 142.504,269.255 143.149 M225.600 155.129 C 225.600 155.310,226.385 155.850,227.344 156.329 C 231.220 158.265,247.064 157.246,245.765 155.144 C 245.622 154.911,245.156 154.999,244.599 155.364 C 241.822 157.184,231.110 157.174,227.520 155.349 C 226.295 154.726,225.600 154.647,225.600 155.129 M114.692 163.300 C 115.124 163.854,116.001 169.754,116.001 172.100 C 116.000 172.966,116.195 173.600,116.461 173.600 C 116.798 173.600,116.851 172.351,116.657 168.967 C 116.382 164.143,116.007 162.800,114.937 162.800 C 114.488 162.800,114.416 162.946,114.692 163.300 M94.134 175.068 C 94.196 180.046,94.253 180.393,95.168 181.367 C 96.423 182.702,96.571 182.489,95.728 180.561 C 95.352 179.703,94.825 176.930,94.556 174.400 L 94.068 169.800 94.134 175.068 M117.406 180.006 C 117.855 180.503,118.205 181.655,118.317 183.006 C 118.417 184.213,118.678 185.200,118.896 185.200 C 119.503 185.200,118.831 180.717,118.101 179.900 C 117.757 179.515,117.296 179.200,117.076 179.200 C 116.856 179.200,117.004 179.563,117.406 180.006 M96.020 185.200 C 96.052 187.317,96.743 189.721,97.554 190.532 C 98.271 191.248,98.400 191.276,98.400 190.712 C 98.400 190.347,98.236 189.946,98.035 189.822 C 97.834 189.697,97.546 188.862,97.394 187.965 C 97.243 187.068,96.868 185.854,96.562 185.267 L 96.005 184.200 96.020 185.200 M119.442 188.733 C 119.315 188.938,119.584 189.580,120.040 190.159 C 120.495 190.739,121.012 192.065,121.187 193.106 L 121.506 195.000 121.552 192.800 C 121.598 190.630,120.079 187.702,119.442 188.733 M98.577 196.500 C 98.769 198.209,99.125 199.286,99.702 199.904 C 100.980 201.271,101.272 200.207,100.156 198.255 C 99.636 197.345,99.207 196.015,99.205 195.300 C 99.202 194.585,98.997 194.000,98.748 194.000 C 98.431 194.000,98.380 194.744,98.577 196.500 M122.702 199.800 C 122.807 200.350,123.142 200.800,123.447 200.800 C 124.109 200.800,124.132 200.594,123.586 199.574 C 123.000 198.479,122.475 198.613,122.702 199.800 M101.526 204.941 C 101.709 206.264,102.258 207.200,102.849 207.200 C 103.665 207.200,102.746 204.219,101.821 203.863 C 101.501 203.741,101.407 204.086,101.526 204.941 M127.600 211.353 C 127.600 211.683,127.780 212.064,128.000 212.200 C 128.220 212.336,128.400 212.177,128.400 211.847 C 128.400 211.517,128.220 211.136,128.000 211.000 C 127.780 210.864,127.600 211.023,127.600 211.353 M104.425 212.301 C 104.675 213.016,105.060 213.714,105.282 213.851 C 105.861 214.209,105.248 212.340,104.543 211.600 C 104.047 211.079,104.031 211.170,104.425 212.301 M129.600 216.157 C 129.600 216.464,129.874 216.820,130.209 216.948 C 130.706 217.139,130.741 217.036,130.395 216.391 C 129.899 215.464,129.600 215.376,129.600 216.157 M140.749 270.200 C 141.410 271.409,142.371 272.563,142.557 272.371 C 142.648 272.277,142.180 271.570,141.517 270.800 C 140.854 270.030,140.509 269.760,140.749 270.200 M144.623 274.514 C 144.729 274.791,145.165 275.236,145.593 275.503 C 146.210 275.888,146.331 275.884,146.177 275.486 C 146.071 275.209,145.635 274.764,145.207 274.497 C 144.590 274.112,144.469 274.116,144.623 274.514 M163.200 290.954 C 163.200 291.039,163.695 291.427,164.300 291.816 L 165.400 292.524 164.638 291.662 C 163.964 290.899,163.200 290.523,163.200 290.954 M184.800 304.990 C 184.800 305.094,185.385 305.465,186.100 305.814 L 187.400 306.448 186.400 305.633 C 185.437 304.848,184.800 304.592,184.800 304.990 M200.000 312.600 C 200.550 312.914,201.180 313.172,201.400 313.172 C 201.620 313.172,201.350 312.914,200.800 312.600 C 200.250 312.286,199.620 312.028,199.400 312.028 C 199.180 312.028,199.450 312.286,200.000 312.600 M211.600 317.363 C 212.712 318.040,213.996 318.231,213.380 317.628 C 213.171 317.424,212.460 317.144,211.800 317.005 L 210.600 316.754 211.600 317.363 M226.000 322.000 C 226.330 322.213,226.960 322.378,227.400 322.366 L 228.200 322.344 227.400 322.000 C 226.204 321.486,225.205 321.486,226.000 322.000 M236.200 324.576 C 237.080 324.886,238.340 325.132,239.000 325.123 C 240.324 325.106,239.326 324.817,236.000 324.252 C 234.615 324.017,234.617 324.020,236.200 324.576 M246.760 326.520 C 246.946 326.706,247.706 326.796,248.449 326.719 C 249.767 326.583,249.758 326.575,248.110 326.380 C 247.181 326.271,246.573 326.333,246.760 326.520 " stroke="none" fill="#c08c8c" fill-rule="evenodd"></path><path id="path3" d="M196.869 29.248 C 187.478 29.486,187.094 29.528,185.869 30.434 C 184.855 31.185,183.917 31.418,181.200 31.597 C 177.803 31.820,176.590 32.207,175.618 33.378 C 175.261 33.808,174.395 34.000,172.806 34.000 C 170.878 34.000,170.278 34.185,169.059 35.153 C 168.023 35.976,166.949 36.389,165.314 36.593 C 163.783 36.785,162.641 37.199,161.880 37.840 C 161.252 38.368,160.327 38.800,159.824 38.800 C 159.321 38.800,158.231 39.340,157.400 40.000 C 156.569 40.660,155.489 41.200,155.000 41.200 C 154.511 41.200,153.446 41.728,152.634 42.373 C 151.823 43.018,150.620 43.664,149.962 43.808 C 149.304 43.953,148.358 44.460,147.859 44.936 C 145.426 47.258,143.845 48.400,143.061 48.400 C 142.295 48.400,140.875 49.543,136.126 53.981 C 135.425 54.636,134.393 55.287,133.834 55.427 C 131.626 55.981,120.819 66.998,119.022 70.528 C 118.594 71.368,117.919 72.229,117.522 72.442 C 117.125 72.654,116.800 72.973,116.800 73.150 C 116.800 73.327,115.813 74.535,114.606 75.836 C 113.347 77.192,112.409 78.574,112.406 79.077 C 112.403 79.560,111.438 81.090,110.262 82.477 C 109.087 83.865,107.908 85.658,107.644 86.461 C 107.380 87.265,106.722 88.399,106.182 88.982 C 105.642 89.565,105.197 90.527,105.194 91.121 C 105.190 91.733,104.690 92.764,104.037 93.504 C 103.405 94.221,102.763 95.481,102.611 96.304 C 102.459 97.127,102.007 98.160,101.606 98.600 C 100.822 99.460,100.006 101.991,100.002 103.574 C 100.001 104.110,99.607 104.967,99.126 105.479 C 98.530 106.114,98.162 107.175,97.967 108.823 C 97.785 110.372,97.324 111.768,96.681 112.719 C 95.879 113.903,95.622 114.917,95.397 117.773 C 95.186 120.457,94.908 121.627,94.281 122.475 C 93.579 123.425,93.378 124.573,93.014 129.702 C 92.685 134.338,92.412 136.053,91.874 136.856 C 90.849 138.384,91.011 161.476,92.054 162.659 C 92.569 163.243,92.765 164.710,92.980 169.600 C 93.300 176.901,93.825 180.743,94.621 181.624 C 94.938 181.974,95.298 183.417,95.420 184.830 C 95.785 189.043,95.977 189.854,96.945 191.281 C 97.641 192.306,97.931 193.443,98.119 195.881 C 98.311 198.369,98.593 199.448,99.336 200.544 C 99.902 201.378,100.418 202.881,100.578 204.165 C 100.729 205.371,101.203 206.804,101.631 207.348 C 102.059 207.892,102.582 209.251,102.794 210.368 C 103.186 212.434,104.096 214.565,104.762 214.977 C 104.965 215.102,105.250 215.911,105.396 216.776 C 105.542 217.640,106.098 218.854,106.631 219.473 C 107.164 220.093,107.708 221.175,107.840 221.877 C 107.972 222.579,108.512 223.739,109.040 224.454 C 109.568 225.170,110.000 226.227,110.000 226.803 C 110.000 227.445,110.465 228.296,111.200 229.000 C 111.969 229.737,112.400 230.548,112.400 231.261 C 112.400 231.925,112.883 232.922,113.600 233.739 C 114.260 234.491,114.800 235.366,114.800 235.684 C 114.800 236.002,115.326 237.059,115.969 238.031 C 116.612 239.004,117.257 240.277,117.402 240.860 C 117.548 241.444,117.967 242.260,118.333 242.674 C 119.932 244.481,121.628 246.827,122.092 247.870 C 122.740 249.331,125.091 252.448,126.052 253.121 C 126.463 253.410,126.800 253.963,126.800 254.350 C 126.800 255.370,129.402 258.706,134.080 263.685 C 136.328 266.078,138.386 268.556,138.654 269.193 C 139.335 270.812,151.118 282.740,152.696 283.408 C 153.409 283.709,154.464 284.427,155.040 285.003 C 157.489 287.452,164.461 293.200,164.983 293.200 C 165.296 293.200,166.402 293.936,167.442 294.837 C 170.108 297.144,173.555 299.671,175.200 300.525 C 177.819 301.884,181.102 303.797,182.853 304.984 C 185.041 306.468,188.059 308.153,190.400 309.197 C 191.390 309.639,192.515 310.180,192.900 310.400 C 195.892 312.110,200.974 314.322,202.600 314.621 C 203.480 314.783,204.615 315.239,205.123 315.633 C 205.630 316.028,206.980 316.659,208.123 317.037 C 209.265 317.414,210.560 317.956,211.000 318.241 C 211.440 318.526,212.610 318.887,213.600 319.042 C 214.590 319.198,216.390 319.815,217.600 320.414 C 218.810 321.012,220.682 321.614,221.760 321.752 C 222.837 321.889,223.945 322.188,224.221 322.417 C 224.935 323.010,226.965 323.554,230.200 324.021 C 231.740 324.243,233.651 324.764,234.447 325.178 C 235.393 325.671,237.192 326.024,239.647 326.199 C 241.711 326.346,244.439 326.812,245.710 327.236 C 250.265 328.754,273.476 329.880,279.454 328.873 C 282.234 328.404,284.866 326.301,285.687 323.893 C 285.930 323.182,286.459 322.171,286.864 321.646 C 287.876 320.334,287.865 316.731,286.843 315.047 C 286.427 314.361,285.969 313.260,285.826 312.600 C 285.544 311.304,283.395 308.749,281.915 307.951 C 281.342 307.642,278.533 307.389,274.410 307.274 C 268.638 307.114,267.687 306.993,266.746 306.297 C 265.775 305.579,264.753 305.474,256.223 305.209 C 247.136 304.927,246.738 304.881,245.803 304.003 C 244.996 303.245,244.129 303.023,240.715 302.702 C 237.632 302.412,236.430 302.134,235.920 301.596 C 235.244 300.881,234.363 300.676,229.810 300.180 C 228.140 299.998,227.077 299.631,226.280 298.960 C 225.390 298.212,224.672 298.000,223.024 298.000 C 221.299 298.000,220.644 297.789,219.467 296.853 C 218.673 296.222,217.298 295.590,216.412 295.448 C 215.525 295.307,214.800 295.015,214.800 294.801 C 214.800 294.249,212.129 293.200,210.725 293.200 C 209.395 293.200,208.296 292.696,207.170 291.570 C 206.746 291.146,205.887 290.800,205.259 290.800 C 204.538 290.800,203.657 290.359,202.863 289.600 C 202.115 288.885,201.179 288.400,200.549 288.400 C 199.848 288.400,198.639 287.674,196.971 286.249 C 195.460 284.960,193.906 283.996,193.090 283.843 C 192.341 283.703,191.306 283.138,190.790 282.589 C 190.274 282.040,189.198 281.415,188.398 281.200 C 187.593 280.983,185.976 279.915,184.772 278.806 C 183.578 277.706,182.237 276.804,181.793 276.802 C 180.931 276.800,178.725 275.098,175.186 271.704 C 173.984 270.552,172.280 268.961,171.400 268.170 C 170.520 267.379,169.440 266.403,169.000 266.002 C 168.560 265.600,167.535 264.999,166.722 264.665 C 165.909 264.332,165.011 263.686,164.726 263.230 C 164.441 262.773,164.097 262.400,163.962 262.400 C 163.641 262.400,157.600 256.359,157.600 256.038 C 157.600 255.903,157.230 255.562,156.779 255.279 C 156.327 254.997,155.624 254.009,155.216 253.083 C 154.505 251.470,152.936 249.595,148.283 244.800 C 147.108 243.589,145.938 241.998,145.682 241.263 C 145.426 240.529,144.323 238.896,143.231 237.636 C 142.139 236.375,141.002 234.636,140.704 233.771 C 140.161 232.196,139.521 231.266,137.540 229.173 C 136.947 228.548,136.360 227.347,136.209 226.453 C 136.035 225.424,135.609 224.636,135.018 224.249 C 134.460 223.883,133.987 223.054,133.815 222.141 C 133.660 221.313,133.098 220.119,132.566 219.487 C 132.035 218.855,131.600 217.909,131.600 217.383 C 131.600 216.858,131.060 215.813,130.400 215.061 C 129.625 214.178,129.200 213.260,129.200 212.468 C 129.200 211.717,128.816 210.827,128.209 210.172 C 127.664 209.584,127.102 208.449,126.961 207.651 C 126.819 206.853,126.298 205.750,125.803 205.200 C 125.155 204.481,124.833 203.487,124.653 201.660 C 124.468 199.775,124.146 198.813,123.402 197.929 C 122.851 197.274,122.389 196.617,122.375 196.469 C 121.771 190.008,121.679 189.536,120.858 188.662 C 120.240 188.004,120.000 187.239,120.000 185.929 C 120.000 183.154,119.276 179.935,118.446 179.021 C 117.807 178.317,117.662 177.231,117.428 171.400 C 117.181 165.241,117.055 164.378,116.099 162.247 L 115.043 159.894 115.022 148.247 L 115.000 136.600 116.091 134.524 C 117.016 132.764,117.225 131.757,117.456 127.924 C 117.665 124.469,117.903 123.164,118.466 122.400 C 118.871 121.850,119.448 120.108,119.749 118.529 C 120.057 116.912,120.668 115.185,121.148 114.575 C 121.758 113.799,122.000 112.927,122.000 111.499 C 122.000 109.875,122.213 109.264,123.147 108.200 C 123.777 107.481,124.423 106.204,124.581 105.360 C 124.739 104.517,125.196 103.598,125.595 103.318 C 125.995 103.039,126.593 102.014,126.924 101.042 C 127.255 100.069,127.825 98.942,128.189 98.537 C 130.008 96.514,131.593 94.112,131.596 93.373 C 131.598 92.884,132.995 91.081,135.003 88.973 C 136.924 86.956,138.557 84.861,138.753 84.163 C 139.166 82.692,146.975 74.800,148.017 74.800 C 148.396 74.800,149.221 74.297,149.853 73.682 C 153.024 70.590,156.797 67.600,157.525 67.600 C 157.975 67.600,158.581 67.374,158.871 67.098 C 160.792 65.275,163.615 63.200,164.175 63.200 C 165.022 63.200,166.913 62.228,167.543 61.468 C 167.810 61.147,168.689 60.760,169.496 60.608 C 170.304 60.457,171.481 59.898,172.113 59.366 C 172.745 58.835,173.761 58.400,174.371 58.400 C 175.824 58.400,177.960 57.657,179.154 56.736 C 179.679 56.331,180.759 56.000,181.555 56.000 C 183.144 56.000,188.201 54.663,188.943 54.047 C 189.200 53.834,190.128 53.586,191.005 53.497 L 192.600 53.334 190.723 53.267 C 189.530 53.225,188.364 53.470,187.523 53.941 C 186.795 54.349,184.670 54.912,182.800 55.191 C 180.496 55.536,179.117 55.957,178.522 56.499 C 177.923 57.044,176.793 57.387,174.971 57.575 C 172.714 57.809,172.179 58.016,171.532 58.904 C 170.986 59.653,170.258 60.032,169.007 60.220 C 168.040 60.365,166.939 60.826,166.561 61.243 C 166.182 61.661,165.192 62.187,164.360 62.411 C 162.820 62.825,161.539 63.729,159.694 65.703 C 159.126 66.310,157.945 66.999,157.069 67.235 C 155.583 67.635,153.506 69.288,150.207 72.695 C 149.517 73.407,148.398 74.100,147.720 74.236 C 146.010 74.578,138.693 82.022,138.021 84.103 C 137.754 84.930,137.190 85.791,136.768 86.017 C 136.346 86.243,136.000 86.603,136.000 86.816 C 136.000 87.030,134.930 88.301,133.623 89.641 C 132.316 90.981,131.134 92.591,130.996 93.218 C 130.740 94.385,129.198 96.617,127.416 98.400 C 126.866 98.950,126.294 100.030,126.145 100.800 C 125.996 101.570,125.452 102.596,124.937 103.081 C 124.409 103.577,124.000 104.427,124.000 105.028 C 124.000 105.642,123.491 106.674,122.800 107.461 C 121.763 108.642,121.600 109.141,121.600 111.139 C 121.600 113.161,121.457 113.588,120.453 114.549 C 119.501 115.462,119.259 116.098,119.035 118.287 C 118.835 120.242,118.510 121.229,117.782 122.094 C 116.919 123.120,116.798 123.657,116.783 126.531 C 116.760 130.721,116.272 133.212,115.340 133.893 C 114.645 134.401,114.600 135.267,114.600 148.117 L 114.600 161.800 115.543 163.057 C 116.425 164.231,116.501 164.764,116.703 171.189 C 116.905 177.620,116.982 178.156,117.890 179.494 C 118.667 180.640,118.905 181.619,119.087 184.426 C 119.288 187.526,119.444 188.080,120.456 189.264 C 121.508 190.495,121.598 190.855,121.599 193.845 C 121.600 196.848,121.690 197.203,122.800 198.600 C 123.816 199.878,124.000 200.459,124.000 202.385 C 124.000 204.263,124.166 204.816,124.950 205.553 C 125.518 206.087,125.987 207.087,126.114 208.037 C 126.254 209.078,126.667 209.895,127.311 210.401 C 127.947 210.902,128.388 211.764,128.561 212.846 C 128.708 213.766,129.272 215.045,129.814 215.690 C 130.356 216.334,130.800 217.284,130.800 217.800 C 130.800 218.316,131.223 219.247,131.739 219.869 C 132.255 220.491,132.785 221.683,132.917 222.519 C 133.070 223.490,133.597 224.450,134.378 225.179 C 135.250 225.994,135.600 226.689,135.600 227.606 C 135.600 228.569,136.089 229.457,137.549 231.146 C 138.660 232.431,139.625 234.002,139.793 234.800 C 140.106 236.281,141.031 237.598,141.762 237.603 C 142.206 237.606,142.310 237.773,144.179 241.501 C 144.758 242.657,145.675 243.893,146.216 244.247 C 146.757 244.602,147.200 245.082,147.200 245.314 C 147.200 245.547,148.145 246.653,149.300 247.773 C 150.455 248.894,151.665 250.213,151.989 250.706 C 152.313 251.199,152.898 251.704,153.289 251.828 C 153.720 251.965,154.000 252.447,154.000 253.053 C 154.000 254.464,154.686 255.577,155.824 256.009 C 156.361 256.213,156.803 256.610,156.806 256.890 C 156.814 257.514,162.326 262.974,163.300 263.324 C 163.685 263.462,164.000 263.840,164.000 264.165 C 164.000 264.916,165.530 266.000,166.589 266.000 C 167.253 266.000,171.787 269.874,175.260 273.408 C 175.623 273.778,176.136 274.287,176.400 274.540 C 176.663 274.793,177.399 275.512,178.035 276.137 C 178.760 276.851,179.774 277.353,180.753 277.484 C 181.883 277.636,182.432 277.952,182.740 278.628 C 182.974 279.141,183.691 279.834,184.334 280.166 C 184.977 280.498,185.596 281.013,185.710 281.309 C 185.824 281.606,186.700 282.081,187.658 282.365 C 188.616 282.650,189.701 283.201,190.069 283.591 C 190.436 283.980,191.403 284.424,192.217 284.577 C 193.133 284.749,194.074 285.302,194.684 286.027 C 195.227 286.672,195.904 287.200,196.190 287.200 C 196.475 287.200,196.997 287.642,197.351 288.181 C 197.739 288.773,198.545 289.266,199.384 289.423 C 200.148 289.567,201.274 290.115,201.887 290.642 C 202.499 291.168,203.450 291.602,204.000 291.605 C 205.525 291.614,206.799 292.042,206.806 292.547 C 206.821 293.665,207.651 294.098,210.347 294.394 C 212.535 294.634,213.359 294.906,213.898 295.566 C 214.301 296.059,215.281 296.531,216.200 296.675 C 217.110 296.817,218.180 297.329,218.681 297.862 C 219.444 298.674,219.941 298.800,222.391 298.800 C 225.022 298.800,225.246 298.868,225.591 299.776 C 226.139 301.217,227.200 301.600,230.652 301.600 C 233.298 301.600,233.967 301.745,235.178 302.583 C 236.297 303.357,237.325 303.624,240.000 303.835 C 242.605 304.040,243.681 304.311,244.600 304.994 C 245.742 305.841,246.266 305.895,255.366 306.088 C 262.858 306.247,265.025 306.411,265.366 306.846 C 266.650 308.485,267.177 308.596,274.616 308.800 C 283.363 309.040,282.414 308.480,285.548 315.248 C 286.920 318.210,286.873 318.852,285.051 322.000 C 284.478 322.990,284.007 324.017,284.005 324.282 C 283.998 324.943,282.237 326.649,280.684 327.498 C 278.008 328.961,251.419 328.055,246.600 326.337 C 245.940 326.102,243.370 325.673,240.888 325.385 C 238.029 325.052,235.734 324.549,234.621 324.010 C 233.656 323.543,231.366 322.917,229.533 322.618 C 225.525 321.966,219.457 320.208,217.800 319.219 C 217.140 318.825,215.739 318.392,214.686 318.257 C 213.633 318.122,211.743 317.469,210.486 316.807 C 209.229 316.144,207.958 315.601,207.663 315.601 C 207.368 315.600,206.669 315.240,206.109 314.800 C 205.550 314.360,204.621 313.997,204.046 313.993 C 203.471 313.990,201.560 313.273,199.800 312.400 C 198.040 311.527,196.373 310.810,196.097 310.807 C 195.820 310.803,194.848 310.260,193.937 309.600 C 193.025 308.940,192.032 308.400,191.730 308.400 C 190.428 308.400,182.798 304.044,181.626 302.631 C 181.356 302.307,180.475 301.829,179.668 301.570 C 178.861 301.311,177.930 300.870,177.600 300.589 C 177.270 300.309,176.370 299.814,175.600 299.490 C 174.830 299.166,173.660 298.428,173.000 297.851 C 172.340 297.273,171.677 296.801,171.527 296.800 C 171.376 296.800,170.320 295.891,169.180 294.781 C 168.040 293.670,166.590 292.658,165.957 292.531 C 165.325 292.405,164.131 291.677,163.304 290.913 C 162.477 290.149,160.990 288.769,160.000 287.846 C 159.010 286.923,157.719 285.865,157.130 285.495 C 156.542 285.124,155.948 284.468,155.811 284.035 C 155.669 283.587,154.926 283.046,154.081 282.775 C 153.266 282.514,152.027 281.738,151.326 281.050 C 150.626 280.363,149.456 279.234,148.726 278.541 C 147.997 277.849,147.103 276.923,146.740 276.484 C 146.377 276.044,145.828 275.531,145.520 275.342 C 145.212 275.154,144.552 274.415,144.053 273.700 C 143.554 272.985,142.924 272.400,142.653 272.400 C 142.382 272.400,141.720 271.666,141.180 270.769 C 139.243 267.547,136.667 264.330,135.742 263.978 C 135.224 263.781,134.800 263.441,134.800 263.223 C 134.800 263.005,133.180 260.995,131.200 258.756 C 129.220 256.518,127.600 254.341,127.600 253.919 C 127.600 253.497,126.690 252.190,125.578 251.015 C 124.420 249.790,123.382 248.244,123.147 247.394 C 122.922 246.579,122.167 245.311,121.469 244.577 C 119.528 242.538,119.351 242.272,118.800 240.577 C 118.518 239.710,117.772 238.344,117.143 237.542 C 116.515 236.741,116.000 235.682,116.000 235.190 C 116.000 234.685,115.390 233.719,114.600 232.974 C 113.623 232.052,113.200 231.302,113.200 230.489 C 113.200 229.848,112.858 229.014,112.440 228.636 C 112.021 228.257,111.558 227.299,111.409 226.507 C 111.260 225.715,110.719 224.511,110.206 223.833 C 109.693 223.155,109.073 221.845,108.827 220.921 C 108.582 219.998,107.957 218.910,107.440 218.503 C 106.923 218.096,106.368 217.141,106.207 216.382 C 106.045 215.622,105.593 214.460,105.202 213.800 C 104.810 213.140,104.184 211.520,103.811 210.200 C 103.437 208.880,102.803 207.440,102.401 207.000 C 101.974 206.532,101.551 205.227,101.384 203.855 C 101.168 202.091,100.808 201.181,99.931 200.182 C 98.886 198.993,98.741 198.487,98.537 195.327 C 98.355 192.511,98.115 191.511,97.347 190.368 C 96.598 189.253,96.331 188.191,96.141 185.568 C 95.949 182.930,95.713 181.999,95.054 181.275 C 94.281 180.424,94.191 179.709,93.941 172.475 C 93.792 168.144,93.654 164.298,93.635 163.929 C 93.616 163.559,93.358 163.016,93.063 162.720 C 91.696 161.353,91.600 160.467,91.600 149.173 C 91.600 138.114,91.617 137.879,92.464 137.145 C 93.566 136.189,93.946 133.887,93.976 127.972 C 93.999 123.548,94.044 123.306,95.000 122.475 C 95.882 121.708,96.000 121.287,96.000 118.900 C 96.000 115.654,96.435 113.965,97.561 112.839 C 98.228 112.172,98.400 111.504,98.400 109.577 C 98.400 107.420,98.527 107.037,99.559 106.077 C 100.503 105.199,100.769 104.543,100.995 102.529 C 101.181 100.872,101.589 99.628,102.236 98.751 C 102.766 98.033,103.200 97.054,103.200 96.577 C 103.200 96.100,103.740 95.031,104.400 94.200 C 105.060 93.369,105.600 92.208,105.600 91.620 C 105.600 90.954,106.051 90.117,106.795 89.405 C 107.457 88.771,108.107 87.638,108.252 86.865 C 108.421 85.963,109.272 84.645,110.657 83.138 C 112.068 81.604,112.800 80.461,112.800 79.796 C 112.800 78.842,114.588 76.609,118.265 72.972 C 118.960 72.284,119.710 71.067,119.930 70.268 C 120.494 68.224,132.133 56.622,134.188 56.054 C 135.130 55.794,136.692 54.588,138.825 52.472 C 141.291 50.025,142.386 49.218,143.521 49.008 C 144.602 48.808,145.568 48.141,147.112 46.528 C 148.815 44.747,149.537 44.279,150.844 44.103 C 151.830 43.971,152.648 43.589,152.932 43.128 C 153.189 42.711,154.323 42.100,155.451 41.771 C 156.579 41.441,157.822 40.818,158.213 40.386 C 158.613 39.944,159.439 39.600,160.102 39.600 C 160.890 39.600,161.644 39.209,162.384 38.417 C 163.315 37.420,163.906 37.191,166.125 36.964 C 168.161 36.755,168.963 36.478,169.650 35.747 C 170.258 35.099,170.991 34.797,171.970 34.790 C 174.306 34.775,176.439 34.123,177.062 33.233 C 177.582 32.491,178.049 32.400,181.348 32.400 C 184.940 32.400,185.085 32.364,186.200 31.200 L 187.350 30.000 207.322 30.000 L 227.294 30.000 228.661 31.200 C 229.818 32.216,230.359 32.400,232.183 32.400 C 233.882 32.400,234.583 32.606,235.493 33.372 C 236.317 34.065,237.372 34.425,239.177 34.629 C 241.086 34.845,241.900 35.140,242.501 35.831 C 242.957 36.355,243.988 36.863,244.913 37.019 C 246.132 37.225,247.071 37.821,248.735 39.446 C 250.412 41.083,251.229 41.600,252.142 41.600 C 252.971 41.600,253.736 42.003,254.609 42.900 C 255.305 43.615,257.208 45.511,258.837 47.113 C 260.467 48.715,262.019 50.245,262.286 50.513 C 262.553 50.781,264.122 52.350,265.773 54.000 C 271.453 59.678,273.072 61.594,273.556 63.209 C 273.818 64.086,274.475 65.093,275.017 65.448 C 275.557 65.802,276.000 66.273,276.000 66.493 C 276.000 66.714,276.540 67.509,277.200 68.261 C 277.860 69.013,278.400 70.064,278.400 70.598 C 278.400 71.131,278.828 71.980,279.350 72.484 C 280.083 73.190,280.358 73.995,280.554 76.000 C 280.768 78.199,280.991 78.773,282.003 79.720 C 283.091 80.739,283.200 81.074,283.200 83.404 C 283.200 85.687,283.320 86.079,284.300 86.987 C 285.360 87.970,285.407 88.187,285.600 92.963 C 285.770 97.186,285.918 98.050,286.600 98.801 C 288.107 100.462,287.940 110.625,286.375 112.428 C 285.777 113.119,285.600 113.925,285.600 115.964 C 285.600 119.098,285.161 120.839,284.103 121.897 C 283.561 122.439,283.252 123.479,283.077 125.354 C 282.865 127.630,282.644 128.218,281.613 129.248 C 280.946 129.915,280.400 130.807,280.400 131.230 C 280.400 132.160,277.974 135.603,276.826 136.303 C 276.372 136.580,276.000 137.066,276.000 137.384 C 276.000 137.701,275.736 138.108,275.413 138.289 C 275.090 138.469,273.425 140.012,271.713 141.716 C 265.082 148.317,262.458 150.400,260.776 150.400 C 260.426 150.400,259.715 150.852,259.196 151.404 C 258.677 151.957,257.520 152.604,256.626 152.842 C 255.732 153.080,254.692 153.549,254.315 153.886 C 253.897 154.259,252.191 154.650,249.930 154.892 C 247.133 155.191,245.886 155.520,244.822 156.244 C 242.610 157.746,229.953 157.710,227.102 156.193 C 226.062 155.639,224.353 155.078,223.305 154.945 C 222.257 154.813,220.950 154.411,220.400 154.052 C 219.850 153.693,218.646 153.130,217.725 152.800 C 214.133 151.513,203.868 141.101,202.888 137.751 C 202.606 136.788,202.230 136.000,202.052 136.000 C 201.511 136.000,200.800 134.047,200.800 132.561 C 200.800 131.050,200.031 129.256,199.026 128.422 C 197.817 127.418,198.126 114.233,199.384 113.139 C 200.057 112.554,200.444 111.701,200.606 110.442 C 201.079 106.778,200.967 106.985,204.513 103.200 C 207.165 100.369,209.196 98.800,210.207 98.800 C 210.719 98.800,211.658 98.363,212.293 97.828 C 213.119 97.134,214.172 96.775,215.989 96.569 C 218.038 96.338,218.770 96.052,219.765 95.098 C 221.385 93.544,224.648 93.688,226.218 95.382 C 226.745 95.950,227.728 96.526,228.402 96.660 C 229.676 96.915,230.800 98.113,230.800 99.214 C 230.800 99.564,231.340 100.368,232.000 101.000 C 233.192 102.142,233.200 102.178,233.200 106.593 L 233.200 111.037 230.347 113.971 L 227.494 116.904 224.724 117.208 C 221.216 117.593,221.382 117.335,221.501 122.218 L 221.602 126.365 225.470 130.177 C 230.014 134.655,229.541 134.503,238.352 134.329 C 244.410 134.209,244.921 134.140,245.551 133.360 C 245.925 132.899,246.901 132.395,247.721 132.241 C 249.046 131.993,250.214 131.171,252.485 128.889 C 252.862 128.510,253.384 128.020,253.645 127.800 C 253.905 127.580,255.418 126.050,257.005 124.400 C 258.593 122.750,260.404 120.892,261.029 120.271 C 261.955 119.349,262.214 118.664,262.433 116.549 C 262.633 114.614,262.942 113.700,263.651 112.946 C 264.976 111.535,265.130 99.870,263.843 98.447 C 263.286 97.832,262.979 96.572,262.687 93.705 C 262.348 90.379,262.138 89.636,261.265 88.695 C 260.470 87.837,260.179 86.992,259.964 84.922 C 259.806 83.391,259.449 82.072,259.127 81.827 C 257.913 80.904,255.676 77.532,255.439 76.265 C 255.279 75.415,254.829 74.737,254.201 74.400 C 253.658 74.110,253.120 73.579,253.007 73.222 C 252.806 72.589,245.661 65.367,241.957 62.052 C 240.943 61.145,239.563 60.293,238.890 60.158 C 238.217 60.023,237.168 59.393,236.558 58.757 C 235.949 58.120,235.149 57.600,234.781 57.600 C 234.414 57.600,233.142 57.084,231.956 56.454 C 230.770 55.824,229.350 55.170,228.800 54.999 C 228.250 54.829,227.371 54.355,226.846 53.945 C 226.199 53.440,225.298 53.216,224.046 53.250 L 222.200 53.300 223.821 53.566 C 224.712 53.713,226.002 54.232,226.687 54.720 C 227.372 55.207,228.533 55.719,229.266 55.857 C 230.000 55.995,230.960 56.413,231.400 56.786 C 231.840 57.159,232.920 57.671,233.800 57.924 C 234.680 58.177,235.923 58.838,236.562 59.392 C 237.201 59.946,238.027 60.400,238.398 60.400 C 240.077 60.400,253.584 73.758,254.889 76.709 C 255.797 78.763,256.851 80.402,258.331 82.063 C 258.986 82.798,259.363 83.846,259.554 85.464 C 259.720 86.874,260.176 88.278,260.703 89.001 C 261.329 89.861,261.711 91.274,262.052 94.000 C 262.378 96.606,262.759 98.059,263.264 98.626 C 264.276 99.762,264.381 111.162,263.388 112.155 C 262.598 112.945,261.600 115.780,261.600 117.236 C 261.600 117.923,261.165 118.839,260.500 119.553 C 259.895 120.202,258.860 121.385,258.200 122.182 C 254.394 126.778,249.565 130.982,247.604 131.405 C 246.836 131.570,245.666 132.116,245.004 132.619 C 243.550 133.721,238.239 134.266,233.388 133.812 C 230.365 133.528,226.170 130.974,224.667 128.500 C 224.483 128.199,223.808 127.354,223.167 126.623 C 222.072 125.376,222.000 125.084,222.000 121.861 C 222.000 117.887,222.236 117.600,225.508 117.600 C 228.035 117.600,232.982 113.308,233.618 110.563 C 234.543 106.575,233.874 101.388,232.262 100.051 C 231.898 99.749,231.600 99.188,231.600 98.805 C 231.600 97.807,230.071 96.000,229.227 96.000 C 228.833 96.000,227.812 95.521,226.956 94.935 C 224.845 93.489,220.582 93.334,219.134 94.649 C 218.467 95.256,217.474 95.561,215.657 95.715 C 213.683 95.883,212.879 96.155,212.057 96.929 C 211.476 97.477,210.330 98.106,209.512 98.327 C 208.184 98.686,202.412 103.663,202.403 104.458 C 202.401 104.599,201.883 105.269,201.251 105.946 C 200.358 106.902,200.061 107.658,199.922 109.334 C 199.809 110.700,199.437 111.881,198.908 112.553 C 197.308 114.587,197.331 127.788,198.937 129.394 C 199.615 130.072,199.794 130.651,200.156 133.342 C 200.270 134.191,200.687 135.341,201.082 135.898 C 202.004 137.200,202.189 137.532,202.852 139.071 C 204.315 142.466,215.392 153.200,217.433 153.200 C 217.716 153.200,218.814 153.738,219.873 154.396 C 220.986 155.086,222.645 155.699,223.800 155.847 C 224.900 155.988,226.361 156.440,227.047 156.852 C 228.984 158.014,243.229 157.973,245.000 156.800 C 245.697 156.338,246.877 156.004,247.816 156.003 C 250.063 155.999,253.893 154.942,255.099 153.993 C 255.654 153.557,256.553 153.200,257.096 153.200 C 257.640 153.200,258.741 152.687,259.542 152.059 C 260.344 151.432,261.482 150.802,262.072 150.659 C 262.662 150.516,263.382 150.174,263.672 149.899 C 263.962 149.625,264.920 148.869,265.800 148.220 C 267.634 146.867,278.800 135.719,278.800 135.241 C 278.800 135.067,279.228 134.427,279.750 133.818 C 280.273 133.210,280.931 132.015,281.213 131.162 C 281.494 130.309,282.046 129.321,282.438 128.965 C 282.876 128.570,283.258 127.443,283.423 126.059 C 283.604 124.548,284.042 123.337,284.747 122.400 C 285.646 121.204,285.835 120.460,286.042 117.295 C 286.228 114.458,286.462 113.394,287.042 112.754 C 288.263 111.407,288.428 99.975,287.250 98.382 C 286.572 97.466,286.378 96.410,286.153 92.426 C 285.911 88.142,285.771 87.458,284.940 86.492 C 284.424 85.891,283.997 85.310,283.992 85.200 C 283.896 82.933,283.098 79.765,282.479 79.188 C 281.963 78.707,281.618 77.648,281.427 75.956 C 281.204 73.988,280.887 73.149,279.971 72.106 C 279.327 71.372,278.796 70.373,278.792 69.886 C 278.788 69.399,277.826 67.820,276.655 66.377 C 275.484 64.935,274.397 63.225,274.239 62.577 C 273.890 61.139,274.171 61.447,263.095 50.358 C 255.585 42.838,253.832 41.277,252.684 41.091 C 251.925 40.968,250.858 40.447,250.313 39.934 C 247.600 37.375,246.797 36.800,245.936 36.796 C 245.421 36.794,244.210 36.164,243.244 35.396 C 241.818 34.263,241.145 34.000,239.665 34.000 C 238.335 34.000,237.420 33.707,236.279 32.916 C 235.157 32.139,233.986 31.757,232.133 31.566 C 230.302 31.376,229.332 31.063,228.799 30.491 C 227.663 29.271,215.125 28.783,196.869 29.248 M204.029 50.671 C 203.495 50.783,202.685 51.102,202.229 51.381 C 201.457 51.852,197.643 52.622,194.400 52.960 C 193.630 53.040,194.631 53.054,196.625 52.990 C 198.781 52.920,200.869 52.615,201.774 52.237 C 204.104 51.263,213.061 51.366,216.000 52.400 C 217.210 52.826,219.100 53.161,220.200 53.145 C 222.093 53.117,222.039 53.090,219.200 52.641 C 217.550 52.380,215.570 51.823,214.800 51.402 C 213.395 50.634,206.455 50.163,204.029 50.671 " stroke="none" fill="#aa7272" fill-rule="evenodd"></path><path id="path4" d="M200.726 30.300 C 204.755 30.365,211.235 30.365,215.126 30.299 C 219.017 30.234,215.720 30.180,207.800 30.181 C 199.880 30.181,196.697 30.234,200.726 30.300 M185.843 31.552 C 185.276 32.179,184.498 32.397,182.454 32.504 L 179.800 32.643 182.624 32.722 C 185.509 32.802,187.078 32.235,186.745 31.234 C 186.632 30.896,186.346 30.997,185.843 31.552 M228.400 31.914 C 228.400 32.506,229.454 32.806,231.333 32.750 L 233.000 32.700 231.400 32.408 C 230.520 32.247,229.485 31.981,229.100 31.815 C 228.700 31.643,228.400 31.686,228.400 31.914 M176.522 33.799 C 176.259 34.085,175.134 34.444,174.022 34.597 C 172.910 34.750,172.000 35.011,172.000 35.177 C 172.000 35.564,176.487 34.872,176.945 34.414 C 177.135 34.225,177.225 33.892,177.145 33.674 C 177.061 33.445,176.799 33.497,176.522 33.799 M235.200 33.489 C 235.200 33.716,235.444 34.105,235.743 34.352 C 236.407 34.903,240.000 35.615,240.000 35.195 C 240.000 34.851,238.576 34.414,237.431 34.405 C 237.009 34.402,236.334 34.102,235.931 33.738 C 235.529 33.374,235.200 33.262,235.200 33.489 M169.402 35.998 C 168.951 36.496,168.169 36.800,167.338 36.800 C 166.602 36.800,166.000 36.980,166.000 37.200 C 166.000 38.152,169.772 37.172,170.177 36.115 C 170.545 35.156,170.210 35.105,169.402 35.998 M161.000 39.439 L 159.800 39.964 160.876 39.982 C 161.468 39.992,162.071 39.808,162.216 39.573 C 162.629 38.906,162.299 38.870,161.000 39.439 M249.600 41.000 C 251.125 42.274,253.196 42.965,252.600 42.000 C 252.464 41.780,252.035 41.600,251.646 41.600 C 251.257 41.600,250.517 41.150,250.000 40.600 C 249.483 40.050,248.805 39.600,248.492 39.600 C 248.180 39.600,248.678 40.230,249.600 41.000 M157.097 41.191 C 155.589 42.123,155.358 42.400,156.089 42.400 C 156.783 42.400,158.713 40.971,158.400 40.689 C 158.290 40.590,157.704 40.816,157.097 41.191 M256.418 45.192 C 256.962 46.252,259.865 49.200,260.365 49.200 C 260.530 49.200,260.895 49.630,261.176 50.156 C 261.458 50.682,262.123 51.310,262.655 51.552 C 263.187 51.795,263.735 52.286,263.872 52.644 C 264.103 53.244,268.266 57.582,270.321 59.362 C 271.612 60.481,271.392 59.831,269.965 58.314 C 267.530 55.724,263.239 51.388,262.475 50.745 C 262.047 50.385,261.626 49.935,261.539 49.745 C 261.452 49.555,260.149 48.230,258.644 46.800 C 257.008 45.245,256.113 44.599,256.418 45.192 M146.123 47.545 C 145.517 48.235,144.691 48.800,144.287 48.800 C 143.883 48.800,143.664 48.980,143.800 49.200 C 143.936 49.420,144.204 49.600,144.395 49.600 C 144.949 49.600,147.749 46.816,147.473 46.540 C 147.336 46.403,146.728 46.855,146.123 47.545 M203.200 50.300 C 203.200 50.465,205.630 50.600,208.600 50.600 C 211.570 50.600,214.000 50.465,214.000 50.300 C 214.000 50.135,211.570 50.000,208.600 50.000 C 205.630 50.000,203.200 50.135,203.200 50.300 M137.220 54.027 C 136.460 54.891,135.515 55.700,135.120 55.826 C 134.724 55.951,134.400 56.216,134.400 56.414 C 134.400 57.090,135.797 56.265,137.500 54.584 C 138.435 53.661,139.200 52.792,139.200 52.653 C 139.200 52.076,138.520 52.549,137.220 54.027 M272.948 63.700 C 273.081 64.195,273.192 64.730,273.195 64.890 C 273.200 65.179,275.325 66.400,275.822 66.400 C 275.967 66.400,275.526 65.878,274.842 65.240 C 274.159 64.601,273.600 63.791,273.600 63.440 C 273.600 63.088,273.399 62.800,273.153 62.800 C 272.885 62.800,272.803 63.160,272.948 63.700 M119.600 71.227 C 119.600 71.462,118.942 72.274,118.139 73.032 C 117.335 73.790,116.768 74.502,116.880 74.613 C 117.164 74.897,119.818 72.349,120.124 71.500 C 120.262 71.115,120.201 70.800,119.987 70.800 C 119.774 70.800,119.600 70.992,119.600 71.227 M277.884 71.600 C 277.999 72.040,278.235 72.400,278.409 72.400 C 278.583 72.400,278.631 72.040,278.516 71.600 C 278.401 71.160,278.165 70.800,277.991 70.800 C 277.817 70.800,277.769 71.160,277.884 71.600 M144.984 74.827 C 144.515 75.586,145.199 75.773,145.895 75.076 C 146.519 74.453,146.520 74.400,145.909 74.400 C 145.545 74.400,145.129 74.592,144.984 74.827 M280.006 76.874 C 279.997 78.489,280.696 80.000,281.452 80.000 C 282.078 80.000,282.078 79.950,281.462 79.269 C 281.098 78.866,280.797 78.191,280.794 77.769 C 280.791 77.346,280.613 76.730,280.400 76.400 C 280.097 75.931,280.011 76.034,280.006 76.874 M112.245 81.388 C 111.880 81.944,111.759 82.400,111.977 82.400 C 112.420 82.400,113.364 80.830,113.087 80.553 C 112.989 80.455,112.610 80.831,112.245 81.388 M138.202 81.998 C 137.803 82.439,137.662 82.800,137.889 82.800 C 138.392 82.800,139.390 81.657,139.121 81.388 C 139.015 81.282,138.602 81.556,138.202 81.998 M282.806 84.633 C 282.809 85.495,282.988 86.470,283.203 86.800 C 283.470 87.210,283.514 86.765,283.341 85.400 C 283.025 82.905,282.798 82.581,282.806 84.633 M284.905 94.303 C 284.983 96.340,285.229 98.189,285.452 98.412 C 285.970 98.930,285.668 92.061,285.135 91.200 C 284.895 90.813,284.814 91.917,284.905 94.303 M218.788 96.016 C 218.465 96.220,217.660 96.393,217.000 96.400 C 216.340 96.407,215.530 96.587,215.200 96.800 C 214.764 97.082,215.099 97.189,216.424 97.194 C 217.426 97.197,218.596 96.945,219.023 96.633 C 219.901 95.990,219.693 95.443,218.788 96.016 M226.400 96.357 C 226.400 96.801,227.631 97.303,227.946 96.988 C 228.073 96.861,227.912 96.589,227.588 96.384 C 226.840 95.911,226.400 95.901,226.400 96.357 M211.400 98.453 C 210.351 99.102,210.307 99.196,211.051 99.198 C 211.519 99.199,212.130 98.926,212.408 98.590 C 213.167 97.676,212.747 97.618,211.400 98.453 M126.044 98.874 C 125.851 99.383,125.796 99.971,125.920 100.180 C 126.045 100.389,126.228 100.299,126.327 99.980 C 126.426 99.661,126.672 99.191,126.873 98.936 C 127.099 98.649,127.077 98.371,126.816 98.210 C 126.583 98.066,126.236 98.365,126.044 98.874 M230.000 98.981 C 230.000 99.753,231.076 101.197,231.944 101.589 L 233.000 102.066 231.900 100.911 C 231.295 100.276,230.800 99.541,230.800 99.278 C 230.800 99.015,230.620 98.800,230.400 98.800 C 230.180 98.800,230.000 98.882,230.000 98.981 M264.736 104.346 C 264.819 107.384,264.703 110.488,264.475 111.312 C 264.077 112.754,264.467 113.445,264.957 112.167 C 265.313 111.240,265.254 99.281,264.893 99.057 C 264.723 98.953,264.653 101.333,264.736 104.346 M100.800 103.744 C 100.800 104.289,100.695 105.064,100.567 105.467 C 100.354 106.138,100.388 106.134,100.967 105.424 C 101.684 104.544,101.797 103.369,101.200 103.000 C 100.974 102.861,100.800 103.185,100.800 103.744 M232.940 106.400 C 232.940 108.270,233.009 109.035,233.093 108.100 C 233.177 107.165,233.177 105.635,233.093 104.700 C 233.009 103.765,232.940 104.530,232.940 106.400 M121.463 108.483 C 121.138 109.725,121.385 109.789,121.926 108.602 C 122.177 108.051,122.228 107.600,122.038 107.600 C 121.848 107.600,121.589 107.997,121.463 108.483 M200.533 110.999 C 200.276 112.099,200.126 113.060,200.200 113.134 C 200.559 113.493,201.233 111.412,201.124 110.282 C 201.010 109.101,200.963 109.158,200.533 110.999 M98.459 110.400 C 98.420 110.950,98.289 111.850,98.167 112.400 C 97.976 113.262,98.008 113.302,98.397 112.691 C 98.646 112.302,98.777 111.402,98.689 110.691 C 98.564 109.687,98.513 109.622,98.459 110.400 M285.100 113.733 C 284.611 114.928,284.732 117.958,285.235 117.095 C 285.461 116.707,285.590 115.627,285.523 114.695 C 285.435 113.481,285.315 113.208,285.100 113.733 M118.684 116.000 C 118.569 116.439,118.638 116.900,118.838 117.023 C 119.037 117.146,119.200 116.787,119.200 116.224 C 119.200 114.998,118.972 114.899,118.684 116.000 M262.400 117.795 C 262.400 118.409,261.965 119.242,261.342 119.819 C 260.182 120.894,260.524 121.149,261.864 120.210 C 262.725 119.607,263.334 117.330,262.733 116.959 C 262.550 116.845,262.400 117.222,262.400 117.795 M96.303 118.000 C 95.843 119.817,95.670 122.404,96.023 122.186 C 96.501 121.890,96.898 119.569,96.710 118.163 C 96.556 117.007,96.554 117.006,96.303 118.000 M116.414 123.174 C 115.909 124.118,115.853 126.321,116.348 125.780 C 116.708 125.387,117.274 122.400,116.989 122.400 C 116.900 122.400,116.642 122.748,116.414 123.174 M220.800 124.574 C 220.800 125.644,221.529 127.073,222.767 128.428 C 223.624 129.366,224.000 129.579,224.000 129.125 C 224.000 128.765,223.460 128.017,222.800 127.461 C 221.947 126.744,221.600 126.097,221.600 125.226 C 221.600 124.552,221.420 124.000,221.200 124.000 C 220.980 124.000,220.800 124.258,220.800 124.574 M200.682 129.867 C 200.526 130.120,200.549 130.734,200.733 131.231 C 201.162 132.390,201.556 131.720,201.220 130.404 C 201.064 129.791,200.857 129.585,200.682 129.867 M93.793 133.100 C 93.569 134.915,93.521 136.400,93.685 136.400 C 94.191 136.400,94.451 134.682,94.322 132.183 L 94.200 129.800 93.793 133.100 M250.400 130.797 C 250.400 131.041,249.770 131.504,249.000 131.826 C 247.428 132.482,247.225 132.800,248.378 132.800 C 249.435 132.800,251.483 131.022,250.866 130.641 C 250.610 130.482,250.400 130.553,250.400 130.797 M226.000 131.515 C 226.000 132.794,229.643 134.798,231.876 134.748 L 234.200 134.695 231.908 134.401 C 230.059 134.164,229.304 133.826,228.007 132.654 C 226.361 131.166,226.000 130.962,226.000 131.515 M245.279 133.681 C 245.022 133.938,243.504 134.268,241.906 134.415 L 239.000 134.683 242.051 134.741 C 244.350 134.786,245.227 134.650,245.608 134.190 C 246.219 133.454,245.940 133.020,245.279 133.681 M114.243 134.633 C 113.497 136.576,114.026 162.800,114.811 162.800 C 114.989 162.800,114.957 162.153,114.739 161.363 C 114.501 160.501,114.393 154.734,114.471 146.962 C 114.542 139.833,114.574 134.000,114.543 134.000 C 114.511 134.000,114.376 134.285,114.243 134.633 M272.400 140.047 C 271.106 141.488,270.518 142.400,270.883 142.400 C 271.320 142.400,274.423 138.862,274.137 138.690 C 273.952 138.579,273.170 139.189,272.400 140.047 M246.000 154.800 C 245.554 155.088,245.784 155.189,246.900 155.194 C 247.725 155.197,248.400 155.020,248.400 154.800 C 248.400 154.291,246.788 154.291,246.000 154.800 M93.790 166.500 L 94.200 170.200 94.320 167.408 C 94.445 164.520,94.207 162.800,93.682 162.800 C 93.516 162.800,93.564 164.465,93.790 166.500 M116.233 176.100 C 116.530 178.826,116.651 179.200,117.238 179.200 C 117.483 179.200,117.475 178.913,117.214 178.426 C 116.986 178.001,116.800 176.741,116.800 175.626 C 116.800 174.478,116.618 173.600,116.380 173.600 C 116.103 173.600,116.053 174.448,116.233 176.100 M96.028 183.276 C 96.082 185.048,96.740 185.975,96.772 184.324 C 96.787 183.512,96.620 182.736,96.400 182.600 C 96.175 182.461,96.012 182.757,96.028 183.276 M118.567 186.885 C 118.831 188.533,119.063 189.102,119.336 188.767 C 119.645 188.387,119.083 185.200,118.707 185.200 C 118.450 185.200,118.398 185.828,118.567 186.885 M98.324 192.600 C 98.414 193.370,98.558 194.000,98.644 194.000 C 98.730 194.000,98.800 193.370,98.800 192.600 C 98.800 191.830,98.656 191.200,98.480 191.200 C 98.304 191.200,98.234 191.830,98.324 192.600 M121.251 195.800 C 121.191 197.581,121.616 198.800,122.296 198.800 C 122.795 198.800,122.810 198.694,122.383 198.179 C 122.099 197.838,121.738 196.893,121.580 196.079 C 121.311 194.698,121.289 194.680,121.251 195.800 M101.006 201.700 C 101.309 203.561,102.000 204.695,102.000 203.330 C 102.000 201.846,101.509 200.000,101.115 200.000 C 100.885 200.000,100.841 200.686,101.006 201.700 M123.200 202.426 C 123.200 204.183,123.624 205.224,124.830 206.430 C 125.277 206.877,125.600 207.751,125.600 208.511 C 125.600 209.835,126.527 211.600,127.223 211.600 C 127.838 211.600,127.652 210.395,126.998 210.144 C 126.667 210.017,126.281 209.196,126.141 208.319 C 126.001 207.443,125.462 206.221,124.943 205.605 C 124.251 204.783,124.000 203.994,124.000 202.642 C 124.000 201.629,123.820 200.800,123.600 200.800 C 123.380 200.800,123.200 201.532,123.200 202.426 M103.120 206.827 C 102.885 207.516,103.906 210.759,104.621 211.600 C 104.903 211.930,105.432 213.370,105.797 214.800 C 106.182 216.305,106.877 217.837,107.446 218.438 C 107.987 219.008,108.621 220.178,108.854 221.038 C 109.088 221.897,109.697 223.155,110.209 223.833 C 110.720 224.511,111.260 225.715,111.409 226.507 C 111.558 227.299,112.021 228.257,112.440 228.636 C 112.858 229.014,113.200 229.848,113.200 230.489 C 113.200 231.302,113.623 232.052,114.600 232.974 C 115.390 233.719,116.000 234.685,116.000 235.190 C 116.000 235.682,116.516 236.741,117.147 237.542 C 117.777 238.344,118.428 239.450,118.592 240.000 C 119.034 241.478,120.416 243.658,121.660 244.839 C 122.262 245.411,122.884 246.395,123.042 247.026 C 123.366 248.315,123.304 248.222,125.786 251.113 C 126.784 252.276,127.600 253.491,127.600 253.813 C 127.600 254.136,127.873 254.715,128.207 255.100 C 132.065 259.550,134.800 262.926,134.800 263.237 C 134.800 263.447,135.225 263.781,135.745 263.979 C 136.264 264.177,137.955 266.017,139.501 268.069 C 141.047 270.121,142.972 272.430,143.777 273.200 C 144.583 273.970,145.908 275.305,146.721 276.166 C 150.304 279.962,153.094 282.416,154.281 282.817 C 154.985 283.055,155.674 283.603,155.811 284.035 C 155.948 284.468,156.542 285.124,157.130 285.495 C 157.719 285.865,159.010 286.926,160.000 287.852 C 162.181 289.891,165.472 292.400,165.968 292.400 C 166.166 292.400,167.266 293.165,168.412 294.100 C 172.547 297.473,175.056 299.175,178.220 300.753 C 179.991 301.637,181.759 302.712,182.149 303.143 C 182.539 303.574,183.430 304.158,184.129 304.441 C 184.828 304.724,186.275 305.550,187.345 306.278 C 188.415 307.005,189.466 307.600,189.682 307.600 C 190.087 307.600,197.923 311.248,201.300 313.009 C 202.345 313.554,203.581 314.000,204.046 314.000 C 204.511 314.000,205.546 314.348,206.346 314.774 C 208.534 315.939,210.455 316.711,211.872 316.996 C 212.572 317.136,213.359 317.510,213.621 317.826 C 213.883 318.142,214.610 318.400,215.235 318.400 C 216.293 318.400,217.617 318.856,220.600 320.249 C 221.260 320.557,223.132 321.085,224.759 321.422 C 226.387 321.759,228.007 322.183,228.359 322.363 C 228.712 322.542,229.964 322.798,231.142 322.931 C 232.321 323.064,233.491 323.334,233.742 323.531 C 233.994 323.728,234.830 324.003,235.600 324.141 C 236.370 324.280,237.810 324.581,238.800 324.811 C 239.790 325.040,241.680 325.382,243.000 325.570 C 244.320 325.759,245.760 326.000,246.200 326.106 C 246.640 326.212,248.080 326.429,249.400 326.587 C 250.720 326.746,252.790 327.114,254.000 327.406 C 256.631 328.040,272.994 328.587,277.137 328.179 C 283.918 327.511,287.851 320.693,285.123 314.335 C 282.746 308.795,282.780 308.813,274.189 308.805 C 267.549 308.800,266.690 308.611,265.366 306.864 C 265.018 306.405,263.021 306.250,255.366 306.088 C 246.266 305.895,245.742 305.841,244.600 304.994 C 243.681 304.311,242.605 304.040,240.000 303.835 C 237.325 303.624,236.297 303.357,235.178 302.583 C 233.967 301.745,233.298 301.600,230.652 301.600 C 227.200 301.600,226.139 301.217,225.591 299.776 C 225.246 298.868,225.022 298.800,222.391 298.800 C 219.941 298.800,219.444 298.674,218.681 297.862 C 218.180 297.329,217.110 296.817,216.200 296.675 C 215.281 296.531,214.301 296.059,213.898 295.566 C 213.359 294.906,212.535 294.634,210.347 294.394 C 207.651 294.098,206.821 293.665,206.806 292.547 C 206.799 292.042,205.525 291.614,204.000 291.605 C 203.450 291.602,202.499 291.168,201.887 290.642 C 201.274 290.115,200.148 289.567,199.384 289.423 C 198.545 289.266,197.739 288.773,197.351 288.181 C 196.997 287.642,196.475 287.200,196.190 287.200 C 195.904 287.200,195.227 286.672,194.684 286.027 C 194.074 285.302,193.133 284.749,192.217 284.577 C 191.403 284.424,190.436 283.980,190.069 283.591 C 189.701 283.201,188.616 282.650,187.658 282.365 C 186.700 282.081,185.824 281.606,185.710 281.309 C 185.596 281.013,184.977 280.498,184.334 280.166 C 183.691 279.834,182.974 279.141,182.740 278.628 C 182.432 277.952,181.883 277.636,180.753 277.484 C 179.774 277.353,178.760 276.851,178.035 276.137 C 177.399 275.512,176.636 274.766,176.340 274.480 C 176.043 274.194,175.530 273.685,175.200 273.348 C 171.815 269.898,167.248 266.000,166.589 266.000 C 165.530 266.000,164.000 264.916,164.000 264.165 C 164.000 263.840,163.685 263.462,163.300 263.324 C 162.326 262.974,156.814 257.514,156.806 256.890 C 156.803 256.610,156.361 256.213,155.824 256.009 C 154.686 255.577,154.000 254.464,154.000 253.053 C 154.000 252.447,153.720 251.965,153.289 251.828 C 152.898 251.704,152.313 251.199,151.989 250.706 C 151.665 250.213,150.455 248.894,149.300 247.773 C 148.145 246.653,147.200 245.547,147.200 245.314 C 147.200 245.082,146.757 244.602,146.216 244.247 C 145.675 243.893,144.758 242.657,144.179 241.501 C 142.310 237.773,142.206 237.606,141.762 237.603 C 141.031 237.598,140.106 236.281,139.793 234.800 C 139.625 234.002,138.660 232.431,137.549 231.146 C 136.089 229.457,135.600 228.569,135.600 227.606 C 135.600 226.697,135.253 225.997,134.414 225.213 C 133.721 224.566,133.075 223.427,132.862 222.476 C 132.660 221.581,132.114 220.363,131.648 219.770 C 131.182 219.177,130.800 218.351,130.800 217.934 C 130.800 217.516,130.530 217.071,130.200 216.945 C 129.870 216.818,129.600 216.461,129.600 216.152 C 129.600 215.842,129.439 215.277,129.241 214.895 C 129.044 214.513,128.680 213.750,128.432 213.200 C 128.043 212.334,128.013 212.440,128.210 213.990 C 128.336 214.974,128.675 216.054,128.965 216.390 C 129.255 216.725,129.600 217.705,129.732 218.568 C 129.864 219.430,130.161 220.252,130.392 220.395 C 130.989 220.764,132.400 223.633,132.400 224.477 C 132.400 225.054,131.782 224.820,129.068 223.217 C 127.235 222.135,125.210 221.122,124.568 220.967 C 122.607 220.493,116.270 217.540,115.069 216.541 C 114.447 216.023,113.457 215.484,112.869 215.343 C 112.281 215.201,110.865 214.571,109.722 213.943 C 108.579 213.314,107.364 212.800,107.022 212.800 C 106.680 212.800,106.400 212.554,106.400 212.254 C 106.400 211.954,106.040 211.250,105.600 210.691 C 105.160 210.131,104.800 209.317,104.800 208.881 C 104.800 207.781,103.385 206.050,103.120 206.827 " stroke="none" fill="#b99494" fill-rule="evenodd"></path></g></svg>